<svg width="50" height="50" viewBox="0 0 50 50" fill="none" xmlns="http://www.w3.org/2000/svg">
<g clip-path="url(#clip0_941_694)">
<path d="M33.7482 16.2143C31.5048 13.9709 28.5228 12.7356 25.35 12.7356C25.3498 12.7356 25.349 12.7356 25.3488 12.7356C23.7796 12.7358 22.2504 13.0396 20.804 13.6389C19.3573 14.2381 18.0613 15.1045 16.9516 16.2143C14.7084 18.4575 13.4731 21.4401 13.4731 24.6125C13.4731 26.5044 13.9295 28.3846 14.7945 30.0597L12.7981 35.7629C12.6574 36.1652 12.757 36.6025 13.0586 36.9039C13.2696 37.115 13.5472 37.2271 13.8328 37.2271C13.9551 37.2271 14.0788 37.2066 14.1996 37.1643L19.9028 35.1682C21.5779 36.0331 23.4581 36.4896 25.35 36.4896C28.5224 36.4896 31.5048 35.2541 33.7482 33.0109C35.9914 30.7677 37.2269 27.7851 37.2269 24.6127C37.2269 21.4401 35.9916 18.4575 33.7482 16.2143ZM32.7324 31.9952C30.7606 33.9672 28.1386 35.0531 25.35 35.0531C23.644 35.0531 21.9492 34.6311 20.4488 33.8325C20.1767 33.6879 19.8551 33.663 19.5664 33.7641L14.3849 35.5776L16.1985 30.3961C16.2996 30.107 16.2746 29.7854 16.13 29.5135C15.3315 28.0135 14.9094 26.3187 14.9094 24.6125C14.9094 21.8239 15.9954 19.2019 17.9673 17.23C19.939 15.2583 22.5606 14.1723 25.349 14.172H25.35C28.1388 14.172 30.7606 15.258 32.7324 17.23C34.7045 19.2019 35.7905 21.8237 35.7905 24.6125C35.7905 27.4013 34.7045 30.0233 32.7324 31.9952Z" fill="#8100E9"/>
<path d="M29.7635 25.6735C29.2171 25.1271 28.3281 25.1271 27.7817 25.6735L27.1842 26.271C25.7003 25.4625 24.4996 24.2618 23.6909 22.7779L24.2885 22.1804C24.835 21.634 24.835 20.745 24.2885 20.1986L22.6781 18.5883C22.1318 18.0419 21.2427 18.0419 20.6963 18.5883L19.4082 19.8765C18.6703 20.6143 18.6335 21.8829 19.3045 23.4486C19.8871 24.8079 20.9533 26.302 22.3067 27.6554C23.6601 29.0088 25.1542 30.075 26.5135 30.6576C27.2574 30.9764 27.934 31.1354 28.5187 31.1354C29.1646 31.1354 29.6983 30.9413 30.0856 30.5539L31.3738 29.2656V29.2658C31.6386 29.001 31.7843 28.6491 31.7843 28.2749C31.7843 27.9004 31.6386 27.5486 31.3738 27.284L29.7635 25.6735ZM29.0699 29.5382C28.8593 29.7488 28.2117 29.8226 27.0795 29.3375C25.884 28.8251 24.5497 27.867 23.3224 26.6397C22.0951 25.4124 21.1371 24.0783 20.6248 22.8828C20.1395 21.7506 20.2133 21.1028 20.4239 20.8922L21.6874 19.6287L23.248 21.1895L22.5001 21.9377C22.1618 22.2759 22.0802 22.7888 22.2971 23.2141C23.2806 25.1424 24.8197 26.6815 26.748 27.665C27.1735 27.8819 27.6864 27.8004 28.0246 27.462L28.7726 26.7141L30.3334 28.2749L29.0699 29.5382Z" fill="#8100E9"/>
</g>
<circle cx="24.9814" cy="24.9814" r="23.9814" stroke="#8100E9" stroke-width="2"/>
<defs>
<clipPath id="clip0_941_694">
<rect width="24.4915" height="24.4915" fill="white" transform="translate(12.7354 12.7356)"/>
</clipPath>
</defs>
</svg>
