<svg width="25" height="25" viewBox="0 0 25 25" fill="none" xmlns="http://www.w3.org/2000/svg">
<g clip-path="url(#clip0_941_712)">
<path d="M22.6562 3.125H2.34377C1.05133 3.125 0 4.17633 0 5.46877V19.5313C0 20.8237 1.05133 21.875 2.34377 21.875H22.6562C23.9487 21.875 25 20.8237 25 19.5313V5.46877C25 4.17633 23.9487 3.125 22.6562 3.125ZM22.6562 4.68749C22.7624 4.68749 22.8634 4.70952 22.9557 4.74798L12.5 13.81L2.04427 4.74798C2.13659 4.70957 2.23757 4.68749 2.34371 4.68749H22.6562ZM22.6562 20.3125H2.34377C1.91271 20.3125 1.56249 19.9623 1.56249 19.5312V6.39877L11.9881 15.4343C12.1353 15.5617 12.3177 15.625 12.5 15.625C12.6823 15.625 12.8647 15.5617 13.0119 15.4343L23.4375 6.39877V19.5313C23.4375 19.9623 23.0873 20.3125 22.6562 20.3125Z" fill="#8100E9"/>
</g>
<defs>
<clipPath id="clip0_941_712">
<rect width="25" height="25" fill="white"/>
</clipPath>
</defs>
</svg>
