<svg width="51" height="50" viewBox="0 0 51 50" fill="none" xmlns="http://www.w3.org/2000/svg">
<g clip-path="url(#clip0_941_686)">
<path d="M25.5005 37.2271C25.4194 37.2271 25.3383 37.2271 25.2566 37.2267C23.3369 37.2314 21.5631 37.1826 19.838 37.0776C18.2565 36.9814 16.8128 36.4348 15.6629 35.4972C14.5534 34.5925 13.7957 33.3691 13.4109 31.8616C13.0761 30.5491 13.0583 29.2607 13.0413 28.0146C13.029 27.1205 13.0163 26.061 13.0137 24.9836C13.0163 23.9017 13.029 22.8422 13.0413 21.9481C13.0583 20.7022 13.0761 19.4138 13.4109 18.1011C13.7957 16.5936 14.5534 15.3703 15.6629 14.4655C16.8128 13.5279 18.2565 12.9813 19.8382 12.8851C21.5632 12.7802 23.3374 12.7313 25.2613 12.736C27.1816 12.7319 28.9549 12.7802 30.6799 12.8851C32.2615 12.9813 33.7051 13.5279 34.855 14.4655C35.9648 15.3703 36.7223 16.5936 37.107 18.1011C37.4419 19.4136 37.4596 20.7022 37.4766 21.9481C37.4889 22.8422 37.5018 23.9017 37.5043 24.9791V24.9836C37.5018 26.061 37.4889 27.1205 37.4766 28.0146C37.4596 29.2605 37.442 30.5489 37.107 31.8616C36.7223 33.3691 35.9648 34.5925 34.855 35.4972C33.7051 36.4348 32.2615 36.9814 30.6799 37.0776C29.0279 37.1782 27.3309 37.2271 25.5005 37.2271ZM25.2566 35.3133C27.1452 35.3178 28.8792 35.2702 30.5637 35.1678C31.7596 35.0951 32.7964 34.707 33.6459 34.0143C34.4311 33.374 34.9718 32.4905 35.253 31.3884C35.5318 30.2959 35.5479 29.1228 35.5634 27.9884C35.5755 27.1003 35.5882 26.0483 35.5909 24.9814C35.5882 23.9142 35.5755 22.8624 35.5634 21.9743C35.5479 20.8399 35.5318 19.6668 35.253 18.5741C34.9718 17.472 34.4311 16.5885 33.6459 15.9482C32.7964 15.2557 31.7596 14.8676 30.5637 14.7949C28.8792 14.6923 27.1452 14.6451 25.2611 14.6492C23.3729 14.6447 21.6387 14.6923 19.9542 14.7949C18.7584 14.8676 17.7215 15.2557 16.8721 15.9482C16.0869 16.5885 15.5461 17.472 15.2649 18.5741C14.9861 19.6668 14.97 20.8397 14.9545 21.9743C14.9424 22.8632 14.9297 23.9157 14.9271 24.9836C14.9297 26.0468 14.9424 27.0995 14.9545 27.9884C14.97 29.1228 14.9861 30.2959 15.2649 31.3884C15.5461 32.4905 16.0869 33.374 16.8721 34.0143C17.7215 34.7068 18.7584 35.0949 19.9542 35.1676C21.6387 35.2702 23.3733 35.318 25.2566 35.3133ZM25.211 30.9607C21.9142 30.9607 19.2317 28.2784 19.2317 24.9814C19.2317 21.6843 21.9142 19.002 25.211 19.002C28.5081 19.002 31.1904 21.6843 31.1904 24.9814C31.1904 28.2784 28.5081 30.9607 25.211 30.9607ZM25.211 20.9154C22.9691 20.9154 21.1451 22.7395 21.1451 24.9814C21.1451 27.2232 22.9691 29.0473 25.211 29.0473C27.4531 29.0473 29.277 27.2232 29.277 24.9814C29.277 22.7395 27.4531 20.9154 25.211 20.9154ZM31.8601 17.0886C31.0677 17.0886 30.4251 17.731 30.4251 18.5236C30.4251 19.3163 31.0677 19.9587 31.8601 19.9587C32.6527 19.9587 33.2952 19.3163 33.2952 18.5236C33.2952 17.731 32.6527 17.0886 31.8601 17.0886Z" fill="#8100E9"/>
</g>
<circle cx="25.2592" cy="24.9814" r="23.9814" stroke="#8100E9" stroke-width="2"/>
<defs>
<clipPath id="clip0_941_686">
<rect width="24.4915" height="24.4915" fill="white" transform="translate(13.0137 12.7356)"/>
</clipPath>
</defs>
</svg>
