<svg width="25" height="25" viewBox="0 0 25 25" fill="none" xmlns="http://www.w3.org/2000/svg">
<g clip-path="url(#clip0_941_716)">
<path d="M19.7578 15.4866C19.246 14.9537 18.6286 14.6688 17.9743 14.6688C17.3253 14.6688 16.7027 14.9484 16.1698 15.4813L14.5024 17.1434C14.3653 17.0695 14.2281 17.0009 14.0962 16.9323C13.9062 16.8374 13.7268 16.7477 13.5738 16.6527C12.012 15.6607 10.5926 14.368 9.2313 12.6954C8.57175 11.8617 8.12853 11.1599 7.80667 10.4476C8.23934 10.0519 8.64034 9.64033 9.0308 9.2446C9.17854 9.09686 9.32628 8.94385 9.47402 8.79611C10.5821 7.68806 10.5821 6.25287 9.47402 5.14482L8.03356 3.70436C7.86999 3.54079 7.70114 3.37195 7.54285 3.2031C7.22626 2.87596 6.89385 2.53827 6.55088 2.22169C6.03907 1.71515 5.427 1.44605 4.78328 1.44605C4.13956 1.44605 3.51694 1.71515 2.9893 2.22169C2.98402 2.22696 2.98402 2.22696 2.97874 2.23224L1.18476 4.04205C0.50938 4.71743 0.124201 5.54056 0.0397781 6.49559C-0.086856 8.0363 0.366916 9.47149 0.71516 10.4107C1.56994 12.7165 2.84683 14.8534 4.75162 17.1434C7.06269 19.903 9.84337 22.0821 13.0198 23.6176C14.2334 24.1927 15.8532 24.8734 17.663 24.9894C17.7738 24.9947 17.8899 25 17.9954 25C19.2143 25 20.2379 24.5621 21.0399 23.6914C21.0452 23.6809 21.0558 23.6756 21.061 23.6651C21.3354 23.3326 21.652 23.0319 21.9844 22.71C22.2113 22.4937 22.4435 22.2668 22.6703 22.0294C23.1927 21.4859 23.4671 20.8527 23.4671 20.2037C23.4671 19.5495 23.1874 18.9216 22.6545 18.3939L19.7578 15.4866ZM21.6467 21.0427C21.6414 21.0427 21.6414 21.048 21.6467 21.0427C21.4409 21.2643 21.2299 21.4648 21.003 21.6864C20.66 22.0135 20.3118 22.3565 19.9846 22.7417C19.4517 23.3115 18.8238 23.5806 18.0007 23.5806C17.9216 23.5806 17.8371 23.5806 17.758 23.5754C16.1909 23.4751 14.7346 22.863 13.6424 22.3407C10.6559 20.8949 8.03356 18.8424 5.85439 16.2411C4.05513 14.0725 2.85211 12.0675 2.05537 9.91471C1.56466 8.60088 1.38527 7.57725 1.46441 6.61167C1.51718 5.99433 1.75462 5.48252 2.19256 5.04457L3.99182 3.24531C4.25036 3.0026 4.52474 2.87069 4.79383 2.87069C5.12625 2.87069 5.39535 3.07119 5.56419 3.24004C5.56947 3.24531 5.57474 3.25059 5.58002 3.25587C5.90188 3.55662 6.20791 3.86793 6.52978 4.20034C6.69335 4.36919 6.86219 4.53804 7.03104 4.71216L8.4715 6.15262C9.0308 6.71192 9.0308 7.22901 8.4715 7.78831C8.31848 7.94133 8.17074 8.09434 8.01773 8.24208C7.57451 8.69586 7.15239 9.11797 6.69335 9.52953C6.68279 9.54008 6.67224 9.54536 6.66696 9.55591C6.21319 10.0097 6.29761 10.4529 6.39259 10.7537C6.39787 10.7695 6.40314 10.7853 6.40842 10.8011C6.78304 11.7087 7.31069 12.5635 8.1127 13.5818L8.11798 13.5871C9.57427 15.3811 11.1097 16.7793 12.8034 17.8504C13.0198 17.9876 13.2414 18.0984 13.4524 18.204C13.6424 18.2989 13.8218 18.3886 13.9748 18.4836C13.9959 18.4942 14.017 18.51 14.0381 18.5206C14.2175 18.6103 14.3864 18.6525 14.5605 18.6525C14.9984 18.6525 15.2728 18.3781 15.3625 18.2884L17.167 16.4839C17.3464 16.3045 17.6314 16.0881 17.9638 16.0881C18.2909 16.0881 18.56 16.2939 18.7236 16.4733C18.7289 16.4786 18.7289 16.4786 18.7341 16.4839L21.6414 19.3912C22.1849 19.9294 22.1849 20.4834 21.6467 21.0427Z" fill="#8100E9"/>
<path d="M13.5102 5.94685C14.8926 6.17901 16.1484 6.83329 17.1509 7.83581C18.1534 8.83833 18.8024 10.0941 19.0398 11.4765C19.0979 11.8248 19.3986 12.0675 19.7416 12.0675C19.7838 12.0675 19.8207 12.0622 19.8629 12.0569C20.2534 11.9936 20.5119 11.6243 20.4486 11.2338C20.1637 9.5612 19.3722 8.03631 18.1639 6.82801C16.9556 5.61971 15.4308 4.82825 13.7581 4.54332C13.3677 4.48 13.0036 4.73855 12.935 5.12373C12.8664 5.5089 13.1197 5.88353 13.5102 5.94685Z" fill="#8100E9"/>
<path d="M24.971 11.028C24.5014 8.27375 23.2034 5.76745 21.2089 3.77296C19.2144 1.77848 16.7081 0.480476 13.9538 0.0108749C13.5687 -0.0577186 13.2046 0.206102 13.136 0.591281C13.0727 0.981736 13.3312 1.34581 13.7217 1.4144C16.1805 1.83124 18.423 2.99733 20.2064 4.77548C21.9898 6.55891 23.1506 8.80139 23.5675 11.2602C23.6255 11.6084 23.9263 11.8512 24.2692 11.8512C24.3115 11.8512 24.3484 11.8459 24.3906 11.8406C24.7758 11.7826 25.0396 11.4132 24.971 11.028Z" fill="#8100E9"/>
</g>
<defs>
<clipPath id="clip0_941_716">
<rect width="25" height="25" fill="white"/>
</clipPath>
</defs>
</svg>
