<svg width="51" height="50" viewBox="0 0 51 50" fill="none" xmlns="http://www.w3.org/2000/svg">
<g clip-path="url(#clip0_941_699)">
<path d="M12.9383 24.1609L18.9275 27.1458C19.1591 27.2601 19.4326 27.2519 19.6541 27.1223L24.9851 24.0231L21.7583 26.8825C21.594 27.0285 21.5001 27.2366 21.5001 27.456V34.4208C21.5001 35.1556 22.4379 35.4648 22.8778 34.8811L25.4667 31.439L31.8692 35.0852C32.3182 35.3433 32.8938 35.0841 32.9979 34.5708L36.991 14.6715C37.1104 14.0735 36.5155 13.5857 35.9624 13.8081L13.0016 22.7628C12.3852 23.0037 12.3454 23.866 12.9383 24.1609ZM35.2154 15.743L31.7059 33.2309L25.6392 29.7756C25.3086 29.5868 24.883 29.6705 24.6483 29.9807L23.0308 32.1309V27.7999L31.757 20.0688C32.4478 19.4575 31.6539 18.3707 30.8651 18.834L19.2418 25.5916L15.168 23.5619L35.2154 15.743Z" fill="#8100E9"/>
</g>
<circle cx="25.7406" cy="24.9814" r="23.9814" stroke="#8100E9" stroke-width="2"/>
<defs>
<clipPath id="clip0_941_699">
<rect width="24.4915" height="24.4915" fill="white" transform="translate(12.5151 12.7356)"/>
</clipPath>
</defs>
</svg>
