<svg width="51" height="50" viewBox="0 0 51 50" fill="none" xmlns="http://www.w3.org/2000/svg">
<g clip-path="url(#clip0_941_703)">
<path d="M19.7124 33.5309C19.6808 35.0259 19.5043 36.7342 20.8054 37.1465C22.081 37.5618 22.8208 36.5362 24.4842 34.4545C30.6867 34.878 36.1616 33.134 36.8943 26.8815C37.5504 21.3229 36.7024 17.1645 34.5196 15.1858C31.3184 12.1182 20.8982 11.6886 17.0837 15.3348C15.5132 16.9685 14.7478 19.3657 14.6764 22.8792C14.6182 25.7488 14.4998 31.6165 19.7124 33.5309ZM16.2071 22.9108C16.2704 19.8055 16.899 17.7349 18.1633 16.4185C21.3483 13.3754 30.7867 13.7275 33.4757 16.3073C35.2707 17.9329 35.9636 21.7219 35.3748 26.7029C34.84 31.2706 31.899 32.0502 30.7918 32.3431C28.4988 32.9482 26.3129 33.0799 24.2158 32.8982C23.6637 32.839 23.4464 33.3615 23.2453 33.5513C22.2463 34.7524 21.5258 35.6199 21.3391 35.7362C21.2013 35.5311 21.2227 34.5606 21.2391 33.781C21.1891 33.4299 21.5034 32.4594 20.6839 32.24C16.0459 30.8705 16.151 25.6936 16.2071 22.9108Z" fill="#8100E9"/>
<path d="M19.134 20.879C19.9514 22.5087 20.7484 25.3885 23.8088 27.8948C24.8712 28.7704 28.051 30.791 29.296 30.791C31.0747 30.791 33.1064 27.9928 31.6186 26.7448C30.9491 26.0906 30.0072 25.4467 29.4031 25.0926C29.4021 25.0916 29.4011 25.0916 29.4011 25.0916C27.8326 24.1844 26.9733 25.8539 26.8713 25.9192C24.5732 27.9765 21.7424 24.4028 23.7262 22.6741C23.9701 22.371 25.4253 21.6689 24.562 20.0729C23.7966 18.6881 23.2915 18.2115 23.0057 17.8166C21.4985 15.9348 18.237 19.0605 19.134 20.879ZM28.4959 26.3621C28.6 26.4274 29.5072 26.8244 30.5899 27.8785C30.7277 27.9938 29.8093 29.3286 29.2245 29.2521C29.1092 29.2 28.2755 29.0011 26.4845 27.9061C28.1847 27.3285 28.1704 26.4233 28.4959 26.3621ZM21.6934 18.785C21.7567 18.7513 21.7893 18.7493 21.7862 18.7411C22.0801 19.1503 22.5189 19.5402 23.219 20.8066C23.4047 21.1505 22.9465 21.2842 22.6506 21.5862C22.2291 21.9597 21.9199 22.4047 21.7301 22.8955C21.1035 21.7128 20.8229 20.8607 20.5372 20.2647C20.4229 19.7218 21.2076 19.0626 21.6934 18.785Z" fill="#8100E9"/>
<path d="M26.329 21.4607C26.3403 21.4617 27.4506 21.6036 27.6495 22.7985C27.8179 23.8129 29.3242 23.5404 29.1588 22.5475C28.8496 20.6913 27.2873 20.03 26.5025 19.9402C25.4974 19.8269 25.3249 21.3444 26.329 21.4607Z" fill="#8100E9"/>
<path d="M25.532 18.1605C25.5493 18.1605 27.9587 18.1176 29.5271 19.7953C31.0762 21.4525 30.7344 23.8619 30.7313 23.8833C30.5752 24.8763 32.0835 25.1395 32.2427 24.1211C32.2631 23.9935 32.7131 20.9617 30.6456 18.7493C28.5934 16.5532 25.6085 16.6216 25.485 16.6297C24.439 16.6644 24.5656 18.2401 25.532 18.1605Z" fill="#8100E9"/>
</g>
<circle cx="25.4999" cy="24.9814" r="23.9814" stroke="#8100E9" stroke-width="2"/>
<defs>
<clipPath id="clip0_941_703">
<rect width="24.4915" height="24.4915" fill="white" transform="translate(13.2544 12.7356)"/>
</clipPath>
</defs>
</svg>
