<svg width="62" height="198" viewBox="0 0 62 198" fill="none" xmlns="http://www.w3.org/2000/svg">
<line opacity="0.5" x1="50" y1="67" x2="50" y2="198" stroke="#FEFEFE" stroke-width="2"/>
<path d="M32.811 191.802L39 185.649L39 183.525L32.3472 190.19L26.3047 183.77L26.3047 185.808L32.0054 191.802L32.0054 191.875L26.3047 191.875L26.3047 193.499L39 193.499L39 191.875L32.811 191.875L32.811 191.802ZM39.2075 177.801C39.2075 175.909 38.1577 174.175 36.583 173.467L36.583 173.431L39 173.431L39 171.893L30.3086 171.893C27.7207 171.893 26.0972 173.711 26.0972 176.604C26.0972 179.498 27.7085 181.365 29.979 181.548L29.979 179.986C28.4409 179.705 27.5254 178.509 27.5254 176.641C27.5254 174.664 28.624 173.504 30.4551 173.504L31.5537 173.504L31.7979 177.459C31.9932 180.389 33.3115 182.012 35.4844 182.012C37.7061 182.012 39.2075 180.303 39.2075 177.801ZM37.8159 177.471C37.8159 179.192 36.8638 180.376 35.4844 180.376C34.0806 180.376 33.2139 179.266 33.0796 177.264L32.8232 173.504L34.227 173.504C36.2412 173.504 37.8159 175.25 37.8159 177.471ZM32.811 166.754L39 160.602L39 158.478L32.3472 165.143L26.3047 158.722L26.3047 160.76L32.0054 166.754L32.0054 166.827L26.3047 166.827L26.3047 168.451L39 168.451L39 166.827L32.811 166.827L32.811 166.754ZM39 148.957L28.8071 141.901L28.8071 141.828L39 141.828L39 140.205L26.3047 140.205L26.3047 141.804L36.5098 148.859L36.5098 148.933L26.3047 148.933L26.3047 150.556L39 150.556L39 148.957ZM39 135.103L29.1611 135.103L29.1611 135.029L38.7436 130.427L38.7436 129.17L29.1611 124.568L29.1611 124.507L39 124.507L39 122.896L26.3047 122.896L26.3047 124.763L36.876 129.719L36.876 129.805L26.3047 134.761L26.3047 136.702L39 136.702L39 135.103ZM35.3989 110.591C36.7905 110.945 37.7915 112.276 37.7915 114.192C37.7915 116.719 36.0093 118.343 33.1406 118.343L33.043 118.343L33.043 108.833L32.3594 108.833C28.5752 108.833 26.0972 110.958 26.0972 114.327C26.0972 117.769 28.7461 120.003 32.689 120.003C36.7173 120.003 39.2075 117.793 39.2075 114.229C39.2075 111.434 37.5962 109.371 35.3989 108.992L35.3989 110.591ZM27.5132 114.351C27.5132 112.056 29.2588 110.53 31.7612 110.494L31.7612 118.331C29.2588 118.196 27.5132 116.622 27.5132 114.351ZM39 97.3716L39 95.7603L26.3047 95.7603L26.3047 97.3716L31.749 97.3716L31.749 104.317L26.3047 104.317L26.3047 105.941L39 105.941L39 104.317L33.0918 104.317L33.0918 97.3716L39 97.3716ZM39 83.6636L39 82.0522L26.3047 82.0522L26.3047 83.6636L31.749 83.6636L31.749 90.6094L26.3047 90.6094L26.3047 92.2329L39 92.2329L39 90.6094L33.0918 90.6094L33.0918 83.6636L39 83.6636ZM39.2075 73.3613C39.2075 69.9067 36.6807 67.5752 32.6523 67.5752C28.6118 67.5752 26.0972 69.9067 26.0972 73.3613C26.0972 76.8037 28.6118 79.1475 32.6523 79.1475C36.6807 79.1475 39.2075 76.8159 39.2075 73.3613ZM37.7793 73.3613C37.7793 75.8516 35.875 77.4995 32.6523 77.4995C29.4297 77.4995 27.5254 75.8516 27.5254 73.3613C27.5254 70.8711 29.4297 69.2109 32.6523 69.2109C35.875 69.2109 37.7793 70.8711 37.7793 73.3613Z" fill="#FEFEFE"/>
</svg>
