<svg width="748" height="296" viewBox="0 0 748 296" fill="none" xmlns="http://www.w3.org/2000/svg">
<g filter="url(#filter0_d_3549_2)">
<rect x="8" y="8" width="728" height="276" fill="#FEFEFE"/>
</g>
<path d="M67.1533 73V67.5947H67.2046L69.6655 72.7803H70.6396L73.1006 67.5947H73.1519V73H74.4189V65.3828H72.9321L70.2075 71.3154H70.1489L67.439 65.3828H65.8936V73H67.1533ZM78.7399 73.1318C79.7653 73.1318 80.7321 72.5605 81.1862 71.689H81.2155V73H82.424V67.7339C82.424 66.2178 81.2961 65.251 79.509 65.251C77.7072 65.251 76.5793 66.2617 76.4914 67.5801H77.7219C77.883 66.833 78.4982 66.3716 79.4797 66.3716C80.5344 66.3716 81.1496 66.9282 81.1496 67.8584V68.4956L78.967 68.6201C77.2092 68.7227 76.2058 69.543 76.2058 70.8467C76.2058 72.2163 77.2238 73.1318 78.7399 73.1318ZM79.0256 72.0479C78.1101 72.0479 77.5021 71.5718 77.5021 70.8467C77.5021 70.1289 78.0881 69.6748 79.1135 69.6089L81.1496 69.4844V70.1069C81.1496 71.2056 80.2268 72.0479 79.0256 72.0479ZM88.1879 65.251C87.0819 65.251 86.1957 65.8149 85.727 66.6719H85.6977V65.3828H84.4892V75.5415H85.7636V71.7622H85.7929C86.247 72.5972 87.1259 73.1318 88.2172 73.1318C90.1361 73.1318 91.4472 71.5791 91.4472 69.1914C91.4472 66.8037 90.1288 65.251 88.1879 65.251ZM87.9389 72.0112C86.6352 72.0112 85.7563 70.8906 85.7563 69.1914C85.7563 67.4995 86.6352 66.3716 87.9389 66.3716C89.2938 66.3716 90.1435 67.4702 90.1435 69.1914C90.1435 70.9199 89.2938 72.0112 87.9389 72.0112ZM94.5084 69.3379L97.7823 73H99.4229L95.7755 68.9863L99.3204 65.3828H97.7457L94.5084 68.752H94.4498V65.3828H93.1754V73H94.4498V69.3379H94.5084ZM105.7 70.8174C105.487 71.5352 104.777 72.0259 103.81 72.0259C102.44 72.0259 101.583 71.0664 101.583 69.6089V69.5356H107.047V69.0522C107.047 66.7451 105.78 65.251 103.722 65.251C101.62 65.251 100.272 66.855 100.272 69.2207C100.272 71.6157 101.598 73.1318 103.781 73.1318C105.443 73.1318 106.732 72.1504 106.952 70.8174H105.7ZM103.7 66.3569C104.901 66.3569 105.7 67.2651 105.729 68.5396H101.591C101.671 67.2725 102.506 66.3569 103.7 66.3569ZM114.056 65.3828H107.875V66.4302H110.328V73H111.603V66.4302H114.056V65.3828ZM116.795 73L120.589 67.3384H120.648V73H121.922V65.3828H120.662L116.868 71.0444H116.81V65.3828H115.535V73H116.795ZM129.012 73H130.286V65.3828H129.012V68.5249H125.284V65.3828H124.009V73H125.284V69.5723H129.012V73ZM137.28 66.4302V65.3828H132.38V73H133.655V66.4302H137.28ZM141.836 73.1318C143.938 73.1318 145.359 71.6157 145.359 69.1914C145.359 66.7598 143.938 65.251 141.836 65.251C139.726 65.251 138.305 66.7598 138.305 69.1914C138.305 71.6157 139.726 73.1318 141.836 73.1318ZM141.836 72.0112C140.488 72.0112 139.602 70.9858 139.602 69.1914C139.602 67.397 140.488 66.3716 141.836 66.3716C143.183 66.3716 144.062 67.397 144.062 69.1914C144.062 70.9858 143.183 72.0112 141.836 72.0112ZM150.368 73C151.987 73 152.983 72.1577 152.983 70.8101C152.983 69.8799 152.353 69.1987 151.394 69.0669V69.0083C152.097 68.8618 152.646 68.1367 152.646 67.353C152.646 66.1299 151.774 65.3828 150.346 65.3828H147.087V73H150.368ZM148.361 66.4155H150.156C150.954 66.4155 151.386 66.7964 151.386 67.4849C151.386 68.2246 150.925 68.5835 149.965 68.5835H148.361V66.4155ZM148.361 69.6089H150.068C151.181 69.6089 151.716 69.9897 151.716 70.7808C151.716 71.5498 151.218 71.9673 150.295 71.9673H148.361V69.6089ZM161.259 73H162.519V65.3828H161.259V73ZM154.74 73H157.443C159.186 73 160.307 71.9966 160.307 70.4072C160.307 68.8179 159.186 67.8145 157.443 67.8145H156.015V65.3828H154.74V73ZM157.421 68.8618C158.403 68.8618 159.047 69.4697 159.047 70.4072C159.047 71.3374 158.41 71.9526 157.421 71.9526H156.015V68.8618H157.421ZM169.667 70.8174C169.454 71.5352 168.744 72.0259 167.777 72.0259C166.408 72.0259 165.551 71.0664 165.551 69.6089V69.5356H171.015V69.0522C171.015 66.7451 169.747 65.251 167.689 65.251C165.587 65.251 164.24 66.855 164.24 69.2207C164.24 71.6157 165.565 73.1318 167.748 73.1318C169.411 73.1318 170.7 72.1504 170.919 70.8174H169.667ZM167.667 66.3569C168.869 66.3569 169.667 67.2651 169.696 68.5396H165.558C165.639 67.2725 166.474 66.3569 167.667 66.3569ZM177.379 73L181.173 67.3384H181.231V73H182.506V65.3828H181.246L177.452 71.0444H177.393V65.3828H176.119V73H177.379ZM190.928 67.8804C190.767 66.5107 189.632 65.251 187.728 65.251C185.625 65.251 184.227 66.7891 184.227 69.1914C184.227 71.645 185.633 73.1318 187.742 73.1318C189.471 73.1318 190.745 72.0625 190.943 70.5464H189.69C189.471 71.4619 188.79 72.0112 187.75 72.0112C186.431 72.0112 185.523 70.9639 185.523 69.1914C185.523 67.4629 186.417 66.3716 187.735 66.3716C188.855 66.3716 189.5 67.0527 189.683 67.8804H190.928ZM198.889 67.8804C198.728 66.5107 197.593 65.251 195.689 65.251C193.587 65.251 192.188 66.7891 192.188 69.1914C192.188 71.645 193.594 73.1318 195.703 73.1318C197.432 73.1318 198.706 72.0625 198.904 70.5464H197.652C197.432 71.4619 196.751 72.0112 195.711 72.0112C194.392 72.0112 193.484 70.9639 193.484 69.1914C193.484 67.4629 194.378 66.3716 195.696 66.3716C196.817 66.3716 197.461 67.0527 197.644 67.8804H198.889ZM202.493 69.6382L202.727 66.4302H205.29V73H206.565V65.3828H201.577L201.284 69.6089C201.189 71.0078 200.903 71.894 200.149 71.894C199.966 71.894 199.827 71.8574 199.761 71.8354V72.9854C199.849 73.022 199.995 73.0659 200.215 73.0659C201.819 73.0659 202.339 71.7402 202.493 69.6382ZM213.728 70.8174C213.515 71.5352 212.805 72.0259 211.838 72.0259C210.468 72.0259 209.611 71.0664 209.611 69.6089V69.5356H215.075V69.0522C215.075 66.7451 213.808 65.251 211.75 65.251C209.648 65.251 208.3 66.855 208.3 69.2207C208.3 71.6157 209.626 73.1318 211.809 73.1318C213.471 73.1318 214.76 72.1504 214.98 70.8174H213.728ZM211.728 66.3569C212.929 66.3569 213.728 67.2651 213.757 68.5396H209.619C209.699 67.2725 210.534 66.3569 211.728 66.3569ZM217.089 75.0142V73H223V75.0142H224.186V71.9526H222.978V65.3828H217.734L217.441 69.6089C217.367 70.6343 217.096 71.5864 216.54 71.9526H215.903V75.0142H217.089ZM221.711 71.9526H217.997V71.894C218.356 71.4106 218.554 70.583 218.62 69.6382L218.854 66.4302H221.711V71.9526ZM228.793 73.1318C230.895 73.1318 232.316 71.6157 232.316 69.1914C232.316 66.7598 230.895 65.251 228.793 65.251C226.684 65.251 225.263 66.7598 225.263 69.1914C225.263 71.6157 226.684 73.1318 228.793 73.1318ZM228.793 72.0112C227.445 72.0112 226.559 70.9858 226.559 69.1914C226.559 67.397 227.445 66.3716 228.793 66.3716C230.141 66.3716 231.02 67.397 231.02 69.1914C231.02 70.9858 230.141 72.0112 228.793 72.0112ZM237.325 73C238.944 73 239.94 72.1577 239.94 70.8101C239.94 69.8799 239.31 69.1987 238.351 69.0669V69.0083C239.054 68.8618 239.603 68.1367 239.603 67.353C239.603 66.1299 238.732 65.3828 237.303 65.3828H234.044V73H237.325ZM235.319 66.4155H237.113C237.911 66.4155 238.343 66.7964 238.343 67.4849C238.343 68.2246 237.882 68.5835 236.923 68.5835H235.319V66.4155ZM235.319 69.6089H237.025C238.138 69.6089 238.673 69.9897 238.673 70.7808C238.673 71.5498 238.175 71.9673 237.252 71.9673H235.319V69.6089ZM243.932 73.1318C244.957 73.1318 245.924 72.5605 246.378 71.689H246.407V73H247.616V67.7339C247.616 66.2178 246.488 65.251 244.701 65.251C242.899 65.251 241.771 66.2617 241.683 67.5801H242.913C243.075 66.833 243.69 66.3716 244.671 66.3716C245.726 66.3716 246.341 66.9282 246.341 67.8584V68.4956L244.159 68.6201C242.401 68.7227 241.397 69.543 241.397 70.8467C241.397 72.2163 242.415 73.1318 243.932 73.1318ZM244.217 72.0479C243.302 72.0479 242.694 71.5718 242.694 70.8467C242.694 70.1289 243.28 69.6748 244.305 69.6089L246.341 69.4844V70.1069C246.341 71.2056 245.418 72.0479 244.217 72.0479ZM254.676 73H255.95V65.3828H254.676V68.5249H250.948V65.3828H249.673V73H250.948V69.5723H254.676V73ZM259.304 73L263.098 67.3384H263.157V73H264.431V65.3828H263.172L259.378 71.0444H259.319V65.3828H258.045V73H259.304ZM270.701 73H271.975V65.3828H269.25C267.5 65.3828 266.372 66.3423 266.372 67.9097C266.372 68.957 267.024 69.748 268.101 70.0557L265.977 73H267.449L269.382 70.29H270.701V73ZM269.258 69.2427C268.276 69.2427 267.639 68.6787 267.639 67.8877C267.639 66.9722 268.269 66.4302 269.258 66.4302H270.701V69.2427H269.258Z" fill="#2D2C35"/>
<circle opacity="0.7" cx="59.5" cy="69.5" r="1.5" fill="#2D2C35"/>
<path d="M70.896 128H72.1704V120.383H70.896V123.525H67.168V120.383H65.8936V128H67.168V124.572H70.896V128ZM76.4987 128.132C77.5241 128.132 78.4909 127.561 78.945 126.689H78.9743V128H80.1828V122.734C80.1828 121.218 79.0549 120.251 77.2678 120.251C75.466 120.251 74.3381 121.262 74.2502 122.58H75.4807C75.6418 121.833 76.257 121.372 77.2385 121.372C78.2932 121.372 78.9084 121.928 78.9084 122.858V123.496L76.7258 123.62C74.968 123.723 73.9646 124.543 73.9646 125.847C73.9646 127.216 74.9826 128.132 76.4987 128.132ZM76.7844 127.048C75.8688 127.048 75.2609 126.572 75.2609 125.847C75.2609 125.129 75.8469 124.675 76.8723 124.609L78.9084 124.484V125.107C78.9084 126.206 77.9855 127.048 76.7844 127.048ZM88.5761 122.88C88.4149 121.511 87.2797 120.251 85.3754 120.251C83.2733 120.251 81.8744 121.789 81.8744 124.191C81.8744 126.645 83.2807 128.132 85.39 128.132C87.1186 128.132 88.393 127.062 88.5907 125.546H87.3383C87.1186 126.462 86.4374 127.011 85.3974 127.011C84.079 127.011 83.1708 125.964 83.1708 124.191C83.1708 122.463 84.0644 121.372 85.3827 121.372C86.5033 121.372 87.1479 122.053 87.331 122.88H88.5761ZM95.629 120.383H89.4474V121.43H91.901V128H93.1754V121.43H95.629V120.383ZM100.814 120.251C99.7083 120.251 98.8221 120.815 98.3533 121.672H98.324V120.383H97.1155V130.542H98.3899V126.762H98.4192C98.8733 127.597 99.7522 128.132 100.844 128.132C102.763 128.132 104.074 126.579 104.074 124.191C104.074 121.804 102.755 120.251 100.814 120.251ZM100.565 127.011C99.2615 127.011 98.3826 125.891 98.3826 124.191C98.3826 122.5 99.2615 121.372 100.565 121.372C101.92 121.372 102.77 122.47 102.77 124.191C102.77 125.92 101.92 127.011 100.565 127.011ZM108.966 128.132C111.068 128.132 112.489 126.616 112.489 124.191C112.489 121.76 111.068 120.251 108.966 120.251C106.856 120.251 105.436 121.76 105.436 124.191C105.436 126.616 106.856 128.132 108.966 128.132ZM108.966 127.011C107.618 127.011 106.732 125.986 106.732 124.191C106.732 122.397 107.618 121.372 108.966 121.372C110.313 121.372 111.192 122.397 111.192 124.191C111.192 125.986 110.313 127.011 108.966 127.011ZM115.074 117.087C115.074 118.435 116.033 119.357 117.432 119.357C118.831 119.357 119.791 118.435 119.791 117.087H118.853C118.853 117.937 118.304 118.603 117.432 118.603C116.561 118.603 116.011 117.937 116.011 117.087H115.074ZM115.477 128L119.271 122.338H119.329V128H120.604V120.383H119.344L115.55 126.044H115.491V120.383H114.217V128H115.477ZM124.024 124.338L127.298 128H128.938L125.291 123.986L128.836 120.383H127.261L124.024 123.752H123.965V120.383H122.691V128H123.965V124.338H124.024ZM132.315 128.132C133.34 128.132 134.307 127.561 134.761 126.689H134.79V128H135.999V122.734C135.999 121.218 134.871 120.251 133.084 120.251C131.282 120.251 130.154 121.262 130.066 122.58H131.296C131.458 121.833 132.073 121.372 133.054 121.372C134.109 121.372 134.724 121.928 134.724 122.858V123.496L132.542 123.62C130.784 123.723 129.78 124.543 129.78 125.847C129.78 127.216 130.798 128.132 132.315 128.132ZM132.6 127.048C131.685 127.048 131.077 126.572 131.077 125.847C131.077 125.129 131.663 124.675 132.688 124.609L134.724 124.484V125.107C134.724 126.206 133.801 127.048 132.6 127.048ZM141.052 125.166C141.176 126.989 142.714 128.176 145.021 128.176C147.387 128.176 148.925 126.953 148.925 124.997C148.925 123.503 148.054 122.624 145.849 122.141L144.677 121.884C143.234 121.569 142.67 120.998 142.67 120.163C142.67 119.086 143.688 118.442 145.007 118.442C146.384 118.442 147.299 119.152 147.417 120.31H148.735C148.676 118.515 147.153 117.255 145.043 117.255C142.854 117.255 141.315 118.479 141.315 120.222C141.315 121.723 142.231 122.683 144.348 123.144L145.52 123.4C146.984 123.723 147.57 124.309 147.57 125.195C147.57 126.235 146.53 126.989 145.095 126.989C143.579 126.989 142.524 126.301 142.37 125.166H141.052ZM150.258 125.166C150.383 126.989 151.921 128.176 154.228 128.176C156.593 128.176 158.132 126.953 158.132 124.997C158.132 123.503 157.26 122.624 155.055 122.141L153.883 121.884C152.441 121.569 151.877 120.998 151.877 120.163C151.877 119.086 152.895 118.442 154.213 118.442C155.59 118.442 156.506 119.152 156.623 120.31H157.941C157.883 118.515 156.359 117.255 154.25 117.255C152.06 117.255 150.522 118.479 150.522 120.222C150.522 121.723 151.437 122.683 153.554 123.144L154.726 123.4C156.191 123.723 156.777 124.309 156.777 125.195C156.777 126.235 155.737 126.989 154.301 126.989C152.785 126.989 151.73 126.301 151.576 125.166H150.258ZM166.393 126.813H161.295V117.431H159.977V128H166.393V126.813ZM172.223 124.309V123.122H167.418V124.309H172.223ZM180.565 122.88C180.404 121.511 179.268 120.251 177.364 120.251C175.262 120.251 173.863 121.789 173.863 124.191C173.863 126.645 175.269 128.132 177.379 128.132C179.107 128.132 180.382 127.062 180.579 125.546H179.327C179.107 126.462 178.426 127.011 177.386 127.011C176.068 127.011 175.159 125.964 175.159 124.191C175.159 122.463 176.053 121.372 177.371 121.372C178.492 121.372 179.137 122.053 179.32 122.88H180.565ZM187.251 125.817C187.039 126.535 186.329 127.026 185.362 127.026C183.992 127.026 183.135 126.066 183.135 124.609V124.536H188.599V124.052C188.599 121.745 187.332 120.251 185.274 120.251C183.172 120.251 181.824 121.855 181.824 124.221C181.824 126.616 183.15 128.132 185.333 128.132C186.995 128.132 188.284 127.15 188.504 125.817H187.251ZM185.252 121.357C186.453 121.357 187.251 122.265 187.281 123.54H183.143C183.223 122.272 184.058 121.357 185.252 121.357ZM194.033 120.251C192.927 120.251 192.041 120.815 191.572 121.672H191.543V120.383H190.335V130.542H191.609V126.762H191.638C192.092 127.597 192.971 128.132 194.063 128.132C195.982 128.132 197.293 126.579 197.293 124.191C197.293 121.804 195.974 120.251 194.033 120.251ZM193.784 127.011C192.481 127.011 191.602 125.891 191.602 124.191C191.602 122.5 192.481 121.372 193.784 121.372C195.139 121.372 195.989 122.47 195.989 124.191C195.989 125.92 195.139 127.011 193.784 127.011ZM204.302 120.383H198.12V121.43H200.574V128H201.848V121.43H204.302V120.383ZM207.041 128L210.835 122.338H210.893V128H212.168V120.383H210.908L207.114 126.044H207.055V120.383H205.781V128H207.041ZM217.829 128.095V130.542H219.059V128.095C221.418 128.059 222.992 126.542 222.992 124.191C222.992 121.84 221.418 120.332 219.059 120.288V117.878H217.829V120.288C215.456 120.324 213.888 121.84 213.888 124.191C213.888 126.542 215.456 128.051 217.829 128.095ZM217.829 127.011C216.203 126.967 215.17 125.905 215.17 124.191C215.17 122.47 216.203 121.408 217.829 121.372V127.011ZM221.711 124.191C221.711 125.913 220.678 126.975 219.059 127.011V121.372C220.678 121.416 221.711 122.478 221.711 124.191ZM225.98 128L229.774 122.338H229.833V128H231.107V120.383H229.848L226.054 126.044H225.995V120.383H224.721V128H225.98ZM234.528 124.338L237.801 128H239.442L235.795 123.986L239.34 120.383H237.765L234.528 123.752H234.469V120.383H233.195V128H234.469V124.338H234.528ZM242.818 128.132C243.844 128.132 244.81 127.561 245.265 126.689H245.294V128H246.502V122.734C246.502 121.218 245.374 120.251 243.587 120.251C241.786 120.251 240.658 121.262 240.57 122.58H241.8C241.961 121.833 242.577 121.372 243.558 121.372C244.613 121.372 245.228 121.928 245.228 122.858V123.496L243.045 123.62C241.288 123.723 240.284 124.543 240.284 125.847C240.284 127.216 241.302 128.132 242.818 128.132ZM243.104 127.048C242.188 127.048 241.58 126.572 241.58 125.847C241.58 125.129 242.166 124.675 243.192 124.609L245.228 124.484V125.107C245.228 126.206 244.305 127.048 243.104 127.048ZM253.987 120.383H247.806V121.43H250.259V128H251.534V121.43H253.987V120.383ZM257.408 128.132C258.433 128.132 259.4 127.561 259.854 126.689H259.883V128H261.092V122.734C261.092 121.218 259.964 120.251 258.177 120.251C256.375 120.251 255.247 121.262 255.159 122.58H256.389C256.551 121.833 257.166 121.372 258.147 121.372C259.202 121.372 259.817 121.928 259.817 122.858V123.496L257.635 123.62C255.877 123.723 254.873 124.543 254.873 125.847C254.873 127.216 255.891 128.132 257.408 128.132ZM257.693 127.048C256.778 127.048 256.17 126.572 256.17 125.847C256.17 125.129 256.756 124.675 257.781 124.609L259.817 124.484V125.107C259.817 126.206 258.894 127.048 257.693 127.048Z" fill="#2D2C35"/>
<circle opacity="0.7" cx="59.5" cy="124.5" r="1.5" fill="#2D2C35"/>
<path d="M291.127 128.132C292.153 128.132 293.12 127.561 293.574 126.689H293.603V128H294.812V122.734C294.812 121.218 293.684 120.251 291.896 120.251C290.095 120.251 288.967 121.262 288.879 122.58H290.109C290.271 121.833 290.886 121.372 291.867 121.372C292.922 121.372 293.537 121.928 293.537 122.858V123.496L291.354 123.62C289.597 123.723 288.593 124.543 288.593 125.847C288.593 127.216 289.611 128.132 291.127 128.132ZM291.413 127.048C290.498 127.048 289.89 126.572 289.89 125.847C289.89 125.129 290.476 124.675 291.501 124.609L293.537 124.484V125.107C293.537 126.206 292.614 127.048 291.413 127.048ZM301.872 128H303.146V120.383H301.872V123.525H298.144V120.383H296.869V128H298.144V124.572H301.872V128ZM306.5 128L310.294 122.338H310.353V128H311.627V120.383H310.368L306.574 126.044H306.515V120.383H305.241V128H306.5ZM314.974 128V122.595H315.025L317.486 127.78H318.461L320.921 122.595H320.973V128H322.24V120.383H320.753L318.028 126.315H317.97L315.26 120.383H313.714V128H314.974ZM326.561 128.132C327.586 128.132 328.553 127.561 329.007 126.689H329.036V128H330.245V122.734C330.245 121.218 329.117 120.251 327.33 120.251C325.528 120.251 324.4 121.262 324.312 122.58H325.543C325.704 121.833 326.319 121.372 327.301 121.372C328.355 121.372 328.971 121.928 328.971 122.858V123.496L326.788 123.62C325.03 123.723 324.027 124.543 324.027 125.847C324.027 127.216 325.045 128.132 326.561 128.132ZM326.846 127.048C325.931 127.048 325.323 126.572 325.323 125.847C325.323 125.129 325.909 124.675 326.934 124.609L328.971 124.484V125.107C328.971 126.206 328.048 127.048 326.846 127.048ZM339.656 130.014V126.953H338.44V120.383H337.166V126.953H333.577V120.383H332.303V128H338.47V130.014H339.656ZM342.359 128L346.153 122.338H346.211V128H347.486V120.383H346.226L342.432 126.044H342.373V120.383H341.099V128H342.359ZM352.737 128.132C354.839 128.132 356.26 126.616 356.26 124.191C356.26 121.76 354.839 120.251 352.737 120.251C350.627 120.251 349.206 121.76 349.206 124.191C349.206 126.616 350.627 128.132 352.737 128.132ZM352.737 127.011C351.389 127.011 350.503 125.986 350.503 124.191C350.503 122.397 351.389 121.372 352.737 121.372C354.084 121.372 354.963 122.397 354.963 124.191C354.963 125.986 354.084 127.011 352.737 127.011ZM362.99 128H364.265V120.383H362.99V123.525H359.262V120.383H357.988V128H359.262V124.572H362.99V128ZM371.362 128H372.636V120.383H371.362V123.525H367.634V120.383H366.359V128H367.634V124.572H371.362V128ZM381.249 128H382.509V120.383H381.249V128ZM374.73 128H377.433C379.176 128 380.297 126.997 380.297 125.407C380.297 123.818 379.176 122.814 377.433 122.814H376.005V120.383H374.73V128ZM377.411 123.862C378.393 123.862 379.037 124.47 379.037 125.407C379.037 126.337 378.4 126.953 377.411 126.953H376.005V123.862H377.411ZM389.657 125.817C389.445 126.535 388.734 127.026 387.767 127.026C386.398 127.026 385.541 126.066 385.541 124.609V124.536H391.005V124.052C391.005 121.745 389.738 120.251 387.679 120.251C385.577 120.251 384.23 121.855 384.23 124.221C384.23 126.616 385.555 128.132 387.738 128.132C389.401 128.132 390.69 127.15 390.909 125.817H389.657ZM387.657 121.357C388.859 121.357 389.657 122.265 389.686 123.54H385.548C385.629 122.272 386.464 121.357 387.657 121.357ZM396.9 125.678H395.64C395.897 127.121 397.112 128.132 398.826 128.132C400.943 128.132 402.327 126.616 402.327 124.191C402.327 121.818 400.943 120.251 398.841 120.251C397.003 120.251 395.867 121.423 395.655 122.727H396.915C397.112 121.979 397.757 121.372 398.834 121.372C399.962 121.372 400.818 122.163 400.98 123.525H397.567V124.565H401.016C400.936 126.132 400.035 127.011 398.819 127.011C397.816 127.011 397.142 126.521 396.9 125.678ZM407.63 128.095V130.542H408.86V128.095C411.219 128.059 412.793 126.542 412.793 124.191C412.793 121.84 411.219 120.332 408.86 120.288V117.878H407.63V120.288C405.257 120.324 403.689 121.84 403.689 124.191C403.689 126.542 405.257 128.051 407.63 128.095ZM407.63 127.011C406.004 126.967 404.971 125.905 404.971 124.191C404.971 122.47 406.004 121.408 407.63 121.372V127.011ZM411.512 124.191C411.512 125.913 410.479 126.975 408.86 127.011V121.372C410.479 121.416 411.512 122.478 411.512 124.191ZM418.096 128.095V130.542H419.326V128.095C421.685 128.059 423.259 126.542 423.259 124.191C423.259 121.84 421.685 120.332 419.326 120.288V117.878H418.096V120.288C415.723 120.324 414.155 121.84 414.155 124.191C414.155 126.542 415.723 128.051 418.096 128.095ZM418.096 127.011C416.47 126.967 415.437 125.905 415.437 124.191C415.437 122.47 416.47 121.408 418.096 121.372V127.011ZM421.978 124.191C421.978 125.913 420.945 126.975 419.326 127.011V121.372C420.945 121.416 421.978 122.478 421.978 124.191ZM430.049 125.817C429.836 126.535 429.126 127.026 428.159 127.026C426.789 127.026 425.932 126.066 425.932 124.609V124.536H431.396V124.052C431.396 121.745 430.129 120.251 428.071 120.251C425.969 120.251 424.621 121.855 424.621 124.221C424.621 126.616 425.947 128.132 428.13 128.132C429.792 128.132 431.081 127.15 431.301 125.817H430.049ZM428.049 121.357C429.25 121.357 430.049 122.265 430.078 123.54H425.94C426.02 122.272 426.855 121.357 428.049 121.357ZM434.457 124.338L437.731 128H439.372L435.725 123.986L439.269 120.383H437.695L434.457 123.752H434.399V120.383H433.124V128H434.399V124.338H434.457ZM446.161 120.383H439.98V121.43H442.433V128H443.708V121.43H446.161V120.383ZM454.159 128H455.419V120.383H454.159V128ZM447.64 128H450.343C452.086 128 453.207 126.997 453.207 125.407C453.207 123.818 452.086 122.814 450.343 122.814H448.915V120.383H447.64V128ZM450.321 123.862C451.303 123.862 451.947 124.47 451.947 125.407C451.947 126.337 451.31 126.953 450.321 126.953H448.915V123.862H450.321Z" fill="#2D2C35"/>
<circle opacity="0.7" cx="282.5" cy="124.5" r="1.5" fill="#2D2C35"/>
<path d="M487.896 128H489.17V120.383H487.896V123.525H484.168V120.383H482.894V128H484.168V124.572H487.896V128ZM493.499 128.132C494.524 128.132 495.491 127.561 495.945 126.689H495.974V128H497.183V122.734C497.183 121.218 496.055 120.251 494.268 120.251C492.466 120.251 491.338 121.262 491.25 122.58H492.481C492.642 121.833 493.257 121.372 494.238 121.372C495.293 121.372 495.908 121.928 495.908 122.858V123.496L493.726 123.62C491.968 123.723 490.965 124.543 490.965 125.847C490.965 127.216 491.983 128.132 493.499 128.132ZM493.784 127.048C492.869 127.048 492.261 126.572 492.261 125.847C492.261 125.129 492.847 124.675 493.872 124.609L495.908 124.484V125.107C495.908 126.206 494.986 127.048 493.784 127.048ZM505.576 122.88C505.415 121.511 504.28 120.251 502.375 120.251C500.273 120.251 498.874 121.789 498.874 124.191C498.874 126.645 500.281 128.132 502.39 128.132C504.119 128.132 505.393 127.062 505.591 125.546H504.338C504.119 126.462 503.437 127.011 502.397 127.011C501.079 127.011 500.171 125.964 500.171 124.191C500.171 122.463 501.064 121.372 502.383 121.372C503.503 121.372 504.148 122.053 504.331 122.88H505.576ZM512.629 120.383H506.447V121.43H508.901V128H510.175V121.43H512.629V120.383ZM517.814 120.251C516.708 120.251 515.822 120.815 515.353 121.672H515.324V120.383H514.116V130.542H515.39V126.762H515.419C515.873 127.597 516.752 128.132 517.844 128.132C519.763 128.132 521.074 126.579 521.074 124.191C521.074 121.804 519.755 120.251 517.814 120.251ZM517.565 127.011C516.262 127.011 515.383 125.891 515.383 124.191C515.383 122.5 516.262 121.372 517.565 121.372C518.92 121.372 519.77 122.47 519.77 124.191C519.77 125.92 518.92 127.011 517.565 127.011ZM525.966 128.132C528.068 128.132 529.489 126.616 529.489 124.191C529.489 121.76 528.068 120.251 525.966 120.251C523.856 120.251 522.436 121.76 522.436 124.191C522.436 126.616 523.856 128.132 525.966 128.132ZM525.966 127.011C524.618 127.011 523.732 125.986 523.732 124.191C523.732 122.397 524.618 121.372 525.966 121.372C527.313 121.372 528.192 122.397 528.192 124.191C528.192 125.986 527.313 127.011 525.966 127.011ZM532.074 117.087C532.074 118.435 533.033 119.357 534.432 119.357C535.831 119.357 536.791 118.435 536.791 117.087H535.853C535.853 117.937 535.304 118.603 534.432 118.603C533.561 118.603 533.011 117.937 533.011 117.087H532.074ZM532.477 128L536.271 122.338H536.329V128H537.604V120.383H536.344L532.55 126.044H532.491V120.383H531.217V128H532.477ZM541.024 124.338L544.298 128H545.938L542.291 123.986L545.836 120.383H544.261L541.024 123.752H540.965V120.383H539.691V128H540.965V124.338H541.024ZM549.315 128.132C550.34 128.132 551.307 127.561 551.761 126.689H551.79V128H552.999V122.734C552.999 121.218 551.871 120.251 550.084 120.251C548.282 120.251 547.154 121.262 547.066 122.58H548.296C548.458 121.833 549.073 121.372 550.054 121.372C551.109 121.372 551.724 121.928 551.724 122.858V123.496L549.542 123.62C547.784 123.723 546.78 124.543 546.78 125.847C546.78 127.216 547.798 128.132 549.315 128.132ZM549.6 127.048C548.685 127.048 548.077 126.572 548.077 125.847C548.077 125.129 548.663 124.675 549.688 124.609L551.724 124.484V125.107C551.724 126.206 550.801 127.048 549.6 127.048ZM562.615 128H563.889V120.383H561.165C559.414 120.383 558.286 121.342 558.286 122.91C558.286 123.957 558.938 124.748 560.015 125.056L557.891 128H559.363L561.296 125.29H562.615V128ZM561.172 124.243C560.19 124.243 559.553 123.679 559.553 122.888C559.553 121.972 560.183 121.43 561.172 121.43H562.615V124.243H561.172ZM570.986 128H572.26V120.383H570.986V123.525H567.258V120.383H565.984V128H567.258V124.572H570.986V128ZM574.787 130.014V128H580.698V130.014H581.884V126.953H580.676V120.383H575.432L575.139 124.609C575.065 125.634 574.794 126.586 574.238 126.953H573.6V130.014H574.787ZM579.409 126.953H575.695V126.894C576.054 126.411 576.252 125.583 576.318 124.638L576.552 121.43H579.409V126.953ZM588.388 125.817C588.175 126.535 587.465 127.026 586.498 127.026C585.129 127.026 584.272 126.066 584.272 124.609V124.536H589.735V124.052C589.735 121.745 588.468 120.251 586.41 120.251C584.308 120.251 582.961 121.855 582.961 124.221C582.961 126.616 584.286 128.132 586.469 128.132C588.131 128.132 589.421 127.15 589.64 125.817H588.388ZM586.388 121.357C587.589 121.357 588.388 122.265 588.417 123.54H584.279C584.359 122.272 585.194 121.357 586.388 121.357ZM592.797 124.338L596.071 128H597.711L594.064 123.986L597.609 120.383H596.034L592.797 123.752H592.738V120.383H591.464V128H592.738V124.338H592.797ZM605.262 122.88C605.101 121.511 603.966 120.251 602.062 120.251C599.959 120.251 598.561 121.789 598.561 124.191C598.561 126.645 599.967 128.132 602.076 128.132C603.805 128.132 605.079 127.062 605.277 125.546H604.024C603.805 126.462 603.124 127.011 602.083 127.011C600.765 127.011 599.857 125.964 599.857 124.191C599.857 122.463 600.75 121.372 602.069 121.372C603.189 121.372 603.834 122.053 604.017 122.88H605.262ZM607.899 128.073C608.367 128.073 608.734 127.707 608.734 127.238C608.734 126.77 608.367 126.403 607.899 126.403C607.43 126.403 607.064 126.77 607.064 127.238C607.064 127.707 607.43 128.073 607.899 128.073ZM612.256 128V122.595H612.308L614.768 127.78H615.743L618.204 122.595H618.255V128H619.522V120.383H618.035L615.31 126.315H615.252L612.542 120.383H610.996V128H612.256ZM626.67 125.817C626.458 126.535 625.747 127.026 624.78 127.026C623.411 127.026 622.554 126.066 622.554 124.609V124.536H628.018V124.052C628.018 121.745 626.751 120.251 624.692 120.251C622.59 120.251 621.243 121.855 621.243 124.221C621.243 126.616 622.568 128.132 624.751 128.132C626.414 128.132 627.703 127.15 627.922 125.817H626.67ZM624.671 121.357C625.872 121.357 626.67 122.265 626.699 123.54H622.561C622.642 122.272 623.477 121.357 624.671 121.357ZM635.027 120.383H628.845V121.43H631.299V128H632.573V121.43H635.027V120.383ZM640.212 120.251C639.106 120.251 638.22 120.815 637.751 121.672H637.722V120.383H636.513V130.542H637.788V126.762H637.817C638.271 127.597 639.15 128.132 640.241 128.132C642.16 128.132 643.471 126.579 643.471 124.191C643.471 121.804 642.153 120.251 640.212 120.251ZM639.963 127.011C638.659 127.011 637.78 125.891 637.78 124.191C637.78 122.5 638.659 121.372 639.963 121.372C641.318 121.372 642.167 122.47 642.167 124.191C642.167 125.92 641.318 127.011 639.963 127.011ZM646.459 128L650.253 122.338H650.312V128H651.586V120.383H650.326L646.532 126.044H646.474V120.383H645.199V128H646.459ZM655.006 124.338L658.28 128H659.921L656.273 123.986L659.818 120.383H658.244L655.006 123.752H654.948V120.383H653.673V128H654.948V124.338H655.006ZM662.543 128L666.337 122.338H666.395V128H667.67V120.383H666.41L662.616 126.044H662.557V120.383H661.283V128H662.543Z" fill="#2D2C35"/>
<circle opacity="0.7" cx="476.5" cy="124.5" r="1.5" fill="#2D2C35"/>
<path d="M36.6187 102.871C38.2227 102.871 38.9771 102.271 39.6362 100.403L42.5293 92.2949H40.8594L38.9038 98.5645H38.8745L36.9263 92.2949H35.2124L37.9956 100.007C37.9956 100.015 37.8564 100.469 37.8564 100.483C37.6147 101.274 37.2192 101.582 36.4868 101.582C36.355 101.582 36.0913 101.582 35.9741 101.553V102.834C36.0913 102.856 36.4941 102.871 36.6187 102.871ZM48.9377 100H50.5197V92.2949H48.9377V95.4004H45.466V92.2949H43.884V100H45.466V96.6455H48.9377V100ZM54.0937 100L57.6386 94.5874H57.6972V100H59.2719V92.2949H57.7118L54.1596 97.6855H54.101V92.2949H52.5336V100H54.0937ZM62.9117 96.4478L65.9586 100H67.9435L64.4132 95.9131L67.8116 92.2949H65.922L62.9117 95.5908H62.8531V92.2949H61.2711V100H62.8531V96.4478H62.9117ZM71.2977 100.132C72.3084 100.132 73.2825 99.5898 73.7293 98.7329H73.7659V100H75.282V94.6899C75.282 93.1445 74.0882 92.1558 72.2205 92.1558C70.3162 92.1558 69.1297 93.1812 69.0418 94.5728H70.5359C70.6751 93.8843 71.2464 93.4448 72.1619 93.4448C73.1287 93.4448 73.7073 93.9575 73.7073 94.8145V95.4077L71.5979 95.5322C69.7669 95.6348 68.7342 96.4624 68.7342 97.8101C68.7342 99.1943 69.7962 100.132 71.2977 100.132ZM71.7371 98.8794C70.8948 98.8794 70.3309 98.4399 70.3309 97.7661C70.3309 97.1069 70.8655 96.6895 71.8104 96.6235L73.7073 96.5063V97.1143C73.7073 98.1177 72.8431 98.8794 71.7371 98.8794ZM79.5957 96.4917L79.8008 93.5474H82.1519V100H83.7412V92.2949H78.4019L78.1382 96.4258C78.0503 97.7661 77.7866 98.6597 77.0396 98.6597C76.8418 98.6597 76.6953 98.623 76.6221 98.6011V99.9927C76.7173 100.029 76.9004 100.073 77.1567 100.073C78.8853 100.073 79.4492 98.6743 79.5957 96.4917ZM85.7404 100H88.7873C90.5671 100 91.717 98.9673 91.717 97.334C91.717 95.708 90.5671 94.6753 88.7873 94.6753H87.3225V92.2949H85.7404V100ZM88.6481 95.9131C89.549 95.9131 90.1423 96.4771 90.1423 97.334C90.1423 98.1836 89.5563 98.7549 88.6481 98.7549H87.3225V95.9131H88.6481ZM98.3891 100H99.9711V92.2949H98.3891V95.4004H94.9174V92.2949H93.3354V100H94.9174V96.6455H98.3891V100ZM108.848 100H110.415V92.2949H108.848V100ZM101.985 100H105.032C106.812 100 107.962 98.9673 107.962 97.334C107.962 95.708 106.812 94.6753 105.032 94.6753H103.567V92.2949H101.985V100ZM104.893 95.9131C105.794 95.9131 106.387 96.4771 106.387 97.334C106.387 98.1836 105.801 98.7549 104.893 98.7549H103.567V95.9131H104.893ZM113.359 88.9771C113.367 90.3247 114.333 91.2842 115.813 91.2842C117.292 91.2842 118.259 90.3247 118.266 88.9771H117.19C117.182 89.79 116.655 90.4199 115.813 90.4199C114.963 90.4199 114.443 89.79 114.436 88.9771H113.359ZM113.982 100L117.527 94.5874H117.585V100H119.16V92.2949H117.6L114.048 97.6855H113.989V92.2949H112.422V100H113.982ZM125.253 102.021V100H130.937V102.021H132.402V98.7476H131.208V92.2949H125.59L125.312 96.4258C125.238 97.4658 124.982 98.396 124.418 98.7476H123.796V102.021H125.253ZM129.633 98.7476H126.139V98.689C126.491 98.1909 126.681 97.3999 126.74 96.4917L126.952 93.5474H129.633V98.7476ZM135.331 100L138.876 94.5874H138.934V100H140.509V92.2949H138.949L135.397 97.6855H135.338V92.2949H133.771V100H135.331ZM145.284 100.146C147.196 100.146 148.426 99.1724 148.426 97.7515C148.426 96.8799 147.899 96.2427 146.852 96.0229V95.9644C147.687 95.7739 148.214 95.1001 148.214 94.2871C148.214 92.9907 147.167 92.1558 145.358 92.1558C143.548 92.1558 142.457 93.0347 142.296 94.397H143.805C143.907 93.7891 144.464 93.4155 145.328 93.4155C146.251 93.4155 146.669 93.855 146.669 94.4556C146.669 95.144 146.222 95.5176 145.262 95.5176H144.156V96.6528H145.27C146.332 96.6528 146.859 97.0044 146.859 97.7588C146.859 98.4253 146.288 98.894 145.27 98.894C144.376 98.894 143.79 98.5352 143.636 97.8613H142.084C142.223 99.3335 143.534 100.146 145.284 100.146ZM152.374 100.132C153.385 100.132 154.359 99.5898 154.805 98.7329H154.842V100H156.358V94.6899C156.358 93.1445 155.164 92.1558 153.297 92.1558C151.392 92.1558 150.206 93.1812 150.118 94.5728H151.612C151.751 93.8843 152.323 93.4448 153.238 93.4448C154.205 93.4448 154.783 93.9575 154.783 94.8145V95.4077L152.674 95.5322C150.843 95.6348 149.81 96.4624 149.81 97.8101C149.81 99.1943 150.872 100.132 152.374 100.132ZM152.813 98.8794C151.971 98.8794 151.407 98.4399 151.407 97.7661C151.407 97.1069 151.942 96.6895 152.887 96.6235L154.783 96.5063V97.1143C154.783 98.1177 153.919 98.8794 152.813 98.8794ZM159.266 88.9771C159.273 90.3247 160.24 91.2842 161.719 91.2842C163.199 91.2842 164.166 90.3247 164.173 88.9771H163.096C163.089 89.79 162.562 90.4199 161.719 90.4199C160.87 90.4199 160.35 89.79 160.342 88.9771H159.266ZM159.888 100L163.433 94.5874H163.492V100H165.066V92.2949H163.506L159.954 97.6855H159.896V92.2949H158.328V100H159.888ZM172.119 100H173.701V92.2949H172.119V95.4004H168.648V92.2949H167.066V100H168.648V96.6455H172.119V100Z" fill="#8100E9"/>
<circle opacity="0.7" cx="29.5" cy="96.5" r="1.5" fill="#8100E9"/>
<path d="M39.1748 156C40.7935 156 41.7896 155.158 41.7896 153.81C41.7896 152.88 41.1597 152.199 40.2002 152.067V152.008C40.9033 151.862 41.4526 151.137 41.4526 150.353C41.4526 149.13 40.5811 148.383 39.1528 148.383H35.8936V156H39.1748ZM37.168 149.416H38.9624C39.7607 149.416 40.1929 149.796 40.1929 150.485C40.1929 151.225 39.7314 151.583 38.772 151.583H37.168V149.416ZM37.168 152.609H38.8745C39.9878 152.609 40.5225 152.99 40.5225 153.781C40.5225 154.55 40.0244 154.967 39.1016 154.967H37.168V152.609ZM48.5495 156H49.8239V148.383H48.5495V151.525H44.8215V148.383H43.5471V156H44.8215V152.572H48.5495V156ZM52.5629 158.849C53.9398 158.849 54.5697 158.314 55.2216 156.535L58.2172 148.383H56.8769L54.7675 154.726H54.7455L52.6361 148.383H51.2738L54.0863 156.007L53.9105 156.542C53.6176 157.428 53.2221 157.772 52.5116 157.772C52.3505 157.772 52.1527 157.765 52.0136 157.736V158.805C52.1527 158.834 52.4091 158.849 52.5629 158.849ZM65.2335 148.383H59.0519V149.43H61.5055V156H62.7799V149.43H65.2335V148.383ZM70.4188 148.251C69.3128 148.251 68.4266 148.815 67.9578 149.672H67.9285V148.383H66.72V158.542H67.9944V154.762H68.0237C68.4778 155.597 69.3567 156.132 70.448 156.132C72.367 156.132 73.678 154.579 73.678 152.191C73.678 149.804 72.3597 148.251 70.4188 148.251ZM70.1697 155.011C68.866 155.011 67.9871 153.891 67.9871 152.191C67.9871 150.5 68.866 149.372 70.1697 149.372C71.5247 149.372 72.3743 150.47 72.3743 152.191C72.3743 153.92 71.5247 155.011 70.1697 155.011ZM80.4673 153.817C80.2549 154.535 79.5444 155.026 78.5776 155.026C77.208 155.026 76.3511 154.066 76.3511 152.609V152.536H81.8149V152.052C81.8149 149.745 80.5479 148.251 78.4897 148.251C76.3877 148.251 75.04 149.855 75.04 152.221C75.04 154.616 76.3657 156.132 78.5483 156.132C80.2109 156.132 81.5 155.15 81.7197 153.817H80.4673ZM78.4678 149.357C79.6689 149.357 80.4673 150.265 80.4966 151.54H76.3584C76.439 150.272 77.2739 149.357 78.4678 149.357ZM88.5456 156H89.82V148.383H88.5456V151.525H84.8176V148.383H83.5432V156H84.8176V152.572H88.5456V156ZM96.9169 156H98.1913V148.383H96.9169V151.525H93.1889V148.383H91.9145V156H93.1889V152.572H96.9169V156ZM104.468 156H105.742V148.383H103.018C101.267 148.383 100.139 149.342 100.139 150.91C100.139 151.957 100.791 152.748 101.868 153.056L99.7438 156H101.216L103.15 153.29H104.468V156ZM103.025 152.243C102.044 152.243 101.406 151.679 101.406 150.888C101.406 149.972 102.036 149.43 103.025 149.43H104.468V152.243H103.025ZM112.019 156H113.293V148.383H110.569C108.818 148.383 107.69 149.342 107.69 150.91C107.69 151.957 108.342 152.748 109.419 153.056L107.295 156H108.767L110.7 153.29H112.019V156ZM110.576 152.243C109.595 152.243 108.957 151.679 108.957 150.888C108.957 149.972 109.587 149.43 110.576 149.43H112.019V152.243H110.576ZM118.566 150.485C118.566 151.583 119.262 152.25 120.697 152.594L121.906 152.887C122.778 153.1 123.078 153.415 123.078 153.964C123.078 154.652 122.441 155.092 121.408 155.092C120.375 155.092 119.789 154.674 119.635 153.803H118.361C118.508 155.231 119.621 156.132 121.408 156.132C123.107 156.132 124.36 155.194 124.36 153.869C124.36 152.777 123.803 152.177 122.265 151.803L121.056 151.51C120.207 151.305 119.819 150.946 119.819 150.419C119.819 149.752 120.434 149.291 121.364 149.291C122.301 149.291 122.887 149.782 122.983 150.58H124.198C124.147 149.232 123.034 148.251 121.364 148.251C119.716 148.251 118.566 149.181 118.566 150.485ZM131.039 153.817C130.827 154.535 130.116 155.026 129.149 155.026C127.78 155.026 126.923 154.066 126.923 152.609V152.536H132.387V152.052C132.387 149.745 131.12 148.251 129.061 148.251C126.959 148.251 125.612 149.855 125.612 152.221C125.612 154.616 126.937 156.132 129.12 156.132C130.783 156.132 132.072 155.15 132.291 153.817H131.039ZM129.039 149.357C130.241 149.357 131.039 150.265 131.068 151.54H126.93C127.011 150.272 127.846 149.357 129.039 149.357ZM137.132 156.132C139.234 156.132 140.655 154.616 140.655 152.191C140.655 149.76 139.234 148.251 137.132 148.251C135.023 148.251 133.602 149.76 133.602 152.191C133.602 154.616 135.023 156.132 137.132 156.132ZM137.132 155.011C135.785 155.011 134.899 153.986 134.899 152.191C134.899 150.397 135.785 149.372 137.132 149.372C138.48 149.372 139.359 150.397 139.359 152.191C139.359 153.986 138.48 155.011 137.132 155.011ZM147.034 152.309V151.122H142.23V152.309H147.034ZM152.205 156.132C154.307 156.132 155.728 154.616 155.728 152.191C155.728 149.76 154.307 148.251 152.205 148.251C150.096 148.251 148.675 149.76 148.675 152.191C148.675 154.616 150.096 156.132 152.205 156.132ZM152.205 155.011C150.857 155.011 149.971 153.986 149.971 152.191C149.971 150.397 150.857 149.372 152.205 149.372C153.553 149.372 154.432 150.397 154.432 152.191C154.432 153.986 153.553 155.011 152.205 155.011ZM162.385 156H163.667V148.383H157.456V156H158.731V149.43H162.385V156ZM171.328 148.383H165.146V149.43H167.6V156H168.874V149.43H171.328V148.383ZM174.067 156L177.861 150.338H177.92V156H179.194V148.383H177.934L174.14 154.044H174.082V148.383H172.807V156H174.067ZM182.541 156V150.595H182.592L185.053 155.78H186.027L188.488 150.595H188.539V156H189.806V148.383H188.32L185.595 154.315H185.536L182.826 148.383H181.281V156H182.541ZM193.153 156L196.947 150.338H197.006V156H198.28V148.383H197.021L193.227 154.044H193.168V148.383H191.894V156H193.153ZM200.367 156H209.794V158.087H211.017V154.945H209.772V148.383H208.497V154.953H205.707V148.383H204.432V154.953H201.642V148.383H200.367V156ZM214.664 156.132C215.689 156.132 216.656 155.561 217.11 154.689H217.14V156H218.348V150.734C218.348 149.218 217.22 148.251 215.433 148.251C213.631 148.251 212.503 149.262 212.415 150.58H213.646C213.807 149.833 214.422 149.372 215.404 149.372C216.458 149.372 217.074 149.928 217.074 150.858V151.496L214.891 151.62C213.133 151.723 212.13 152.543 212.13 153.847C212.13 155.216 213.148 156.132 214.664 156.132ZM214.95 155.048C214.034 155.048 213.426 154.572 213.426 153.847C213.426 153.129 214.012 152.675 215.038 152.609L217.074 152.484V153.107C217.074 154.206 216.151 155.048 214.95 155.048ZM227.759 158.014V154.953H226.544V148.383H225.269V154.953H221.68V148.383H220.406V156H226.573V158.014H227.759ZM230.462 156L234.256 150.338H234.314V156H235.589V148.383H234.329L230.535 154.044H230.476V148.383H229.202V156H230.462ZM241.858 156H243.132V148.383H240.408C238.657 148.383 237.529 149.342 237.529 150.91C237.529 151.957 238.181 152.748 239.258 153.056L237.134 156H238.606L240.54 153.29H241.858V156ZM240.415 152.243C239.434 152.243 238.796 151.679 238.796 150.888C238.796 149.972 239.426 149.43 240.415 149.43H241.858V152.243H240.415Z" fill="#2D2C35"/>
<circle opacity="0.7" cx="29.5" cy="152.5" r="1.5" fill="#2D2C35"/>
<path d="M274.175 156C275.793 156 276.79 155.158 276.79 153.81C276.79 152.88 276.16 152.199 275.2 152.067V152.008C275.903 151.862 276.453 151.137 276.453 150.353C276.453 149.13 275.581 148.383 274.153 148.383H270.894V156H274.175ZM272.168 149.416H273.962C274.761 149.416 275.193 149.796 275.193 150.485C275.193 151.225 274.731 151.583 273.772 151.583H272.168V149.416ZM272.168 152.609H273.875C274.988 152.609 275.522 152.99 275.522 153.781C275.522 154.55 275.024 154.967 274.102 154.967H272.168V152.609ZM279.807 156L283.601 150.338H283.659V156H284.934V148.383H283.674L279.88 154.044H279.821V148.383H278.547V156H279.807ZM289.562 156.132C291.35 156.132 292.536 155.18 292.536 153.773C292.536 152.917 292.016 152.287 291.013 152.067V152.008C291.804 151.825 292.324 151.122 292.324 150.331C292.324 149.093 291.379 148.251 289.643 148.251C288.032 148.251 286.933 149.049 286.772 150.309H288.01C288.112 149.701 288.742 149.313 289.643 149.313C290.624 149.313 291.079 149.782 291.079 150.434C291.079 151.203 290.566 151.583 289.562 151.583H288.42V152.624H289.562C290.712 152.624 291.284 152.997 291.284 153.832C291.284 154.557 290.668 155.077 289.562 155.077C288.618 155.077 287.988 154.689 287.841 154.022H286.552C286.684 155.312 287.892 156.132 289.562 156.132ZM294.865 158.849C296.242 158.849 296.872 158.314 297.524 156.535L300.519 148.383H299.179L297.069 154.726H297.047L294.938 148.383H293.576L296.388 156.007L296.212 156.542C295.92 157.428 295.524 157.772 294.814 157.772C294.652 157.772 294.455 157.765 294.316 157.736V158.805C294.455 158.834 294.711 158.849 294.865 158.849ZM303.976 156.132C305.001 156.132 305.968 155.561 306.422 154.689H306.451V156H307.66V150.734C307.66 149.218 306.532 148.251 304.745 148.251C302.943 148.251 301.815 149.262 301.727 150.58H302.958C303.119 149.833 303.734 149.372 304.716 149.372C305.77 149.372 306.386 149.928 306.386 150.858V151.496L304.203 151.62C302.445 151.723 301.442 152.543 301.442 153.847C301.442 155.216 302.46 156.132 303.976 156.132ZM304.262 155.048C303.346 155.048 302.738 154.572 302.738 153.847C302.738 153.129 303.324 152.675 304.349 152.609L306.386 152.484V153.107C306.386 154.206 305.463 155.048 304.262 155.048ZM311.769 152.638L312.003 149.43H314.566V156H315.841V148.383H310.853L310.56 152.609C310.465 154.008 310.179 154.894 309.425 154.894C309.242 154.894 309.103 154.857 309.037 154.835V155.985C309.125 156.022 309.271 156.066 309.491 156.066C311.095 156.066 311.615 154.74 311.769 152.638ZM317.943 156H320.645C322.388 156 323.509 154.997 323.509 153.407C323.509 151.818 322.388 150.814 320.645 150.814H319.217V148.383H317.943V156ZM320.623 151.862C321.605 151.862 322.249 152.47 322.249 153.407C322.249 154.337 321.612 154.953 320.623 154.953H319.217V151.862H320.623ZM330.203 156H331.477V148.383H330.203V151.525H326.475V148.383H325.201V156H326.475V152.572H330.203V156ZM340.09 156H341.35V148.383H340.09V156ZM333.572 156H336.275C338.018 156 339.138 154.997 339.138 153.407C339.138 151.818 338.018 150.814 336.275 150.814H334.846V148.383H333.572V156ZM336.253 151.862C337.234 151.862 337.879 152.47 337.879 153.407C337.879 154.337 337.241 154.953 336.253 154.953H334.846V151.862H336.253ZM344.294 145.087C344.294 146.435 345.254 147.357 346.653 147.357C348.052 147.357 349.011 146.435 349.011 145.087H348.074C348.074 145.937 347.524 146.603 346.653 146.603C345.781 146.603 345.232 145.937 345.232 145.087H344.294ZM344.697 156L348.491 150.338H348.55V156H349.824V148.383H348.564L344.77 154.044H344.712V148.383H343.437V156H344.697ZM358.993 148.251C357.887 148.251 357.001 148.815 356.532 149.672H356.503V148.383H355.295V158.542H356.569V154.762H356.598C357.052 155.597 357.931 156.132 359.023 156.132C360.942 156.132 362.253 154.579 362.253 152.191C362.253 149.804 360.934 148.251 358.993 148.251ZM358.744 155.011C357.441 155.011 356.562 153.891 356.562 152.191C356.562 150.5 357.441 149.372 358.744 149.372C360.099 149.372 360.949 150.47 360.949 152.191C360.949 153.92 360.099 155.011 358.744 155.011ZM369.042 153.817C368.829 154.535 368.119 155.026 367.152 155.026C365.783 155.026 364.926 154.066 364.926 152.609V152.536H370.39V152.052C370.39 149.745 369.122 148.251 367.064 148.251C364.962 148.251 363.615 149.855 363.615 152.221C363.615 154.616 364.94 156.132 367.123 156.132C368.786 156.132 370.075 155.15 370.294 153.817H369.042ZM367.042 149.357C368.244 149.357 369.042 150.265 369.071 151.54H364.933C365.014 150.272 365.849 149.357 367.042 149.357ZM372.403 158.014V156H378.314V158.014H379.501V154.953H378.292V148.383H373.048L372.755 152.609C372.682 153.634 372.411 154.586 371.854 154.953H371.217V158.014H372.403ZM377.025 154.953H373.312V154.894C373.671 154.411 373.868 153.583 373.934 152.638L374.169 149.43H377.025V154.953ZM383.177 156.132C384.202 156.132 385.169 155.561 385.623 154.689H385.653V156H386.861V150.734C386.861 149.218 385.733 148.251 383.946 148.251C382.144 148.251 381.016 149.262 380.929 150.58H382.159C382.32 149.833 382.935 149.372 383.917 149.372C384.971 149.372 385.587 149.928 385.587 150.858V151.496L383.404 151.62C381.646 151.723 380.643 152.543 380.643 153.847C380.643 155.216 381.661 156.132 383.177 156.132ZM383.463 155.048C382.547 155.048 381.939 154.572 381.939 153.847C381.939 153.129 382.525 152.675 383.551 152.609L385.587 152.484V153.107C385.587 154.206 384.664 155.048 383.463 155.048ZM390.252 152.338L393.526 156H395.167L391.519 151.986L395.064 148.383H393.489L390.252 151.752H390.193V148.383H388.919V156H390.193V152.338H390.252ZM401.956 148.383H395.774V149.43H398.228V156H399.502V149.43H401.956V148.383ZM406.453 156.132C408.555 156.132 409.975 154.616 409.975 152.191C409.975 149.76 408.555 148.251 406.453 148.251C404.343 148.251 402.922 149.76 402.922 152.191C402.922 154.616 404.343 156.132 406.453 156.132ZM406.453 155.011C405.105 155.011 404.219 153.986 404.219 152.191C404.219 150.397 405.105 149.372 406.453 149.372C407.8 149.372 408.679 150.397 408.679 152.191C408.679 153.986 407.8 155.011 406.453 155.011ZM415.41 148.251C414.304 148.251 413.418 148.815 412.949 149.672H412.92V148.383H411.711V158.542H412.985V154.762H413.015C413.469 155.597 414.348 156.132 415.439 156.132C417.358 156.132 418.669 154.579 418.669 152.191C418.669 149.804 417.351 148.251 415.41 148.251ZM415.161 155.011C413.857 155.011 412.978 153.891 412.978 152.191C412.978 150.5 413.857 149.372 415.161 149.372C416.516 149.372 417.365 150.47 417.365 152.191C417.365 153.92 416.516 155.011 415.161 155.011ZM425.106 152.338L428.38 156H430.021L426.374 151.986L429.918 148.383H428.344L425.106 151.752H425.048V148.383H423.773V156H425.048V152.338H425.106ZM434.401 156.132C436.503 156.132 437.924 154.616 437.924 152.191C437.924 149.76 436.503 148.251 434.401 148.251C432.291 148.251 430.87 149.76 430.87 152.191C430.87 154.616 432.291 156.132 434.401 156.132ZM434.401 155.011C433.053 155.011 432.167 153.986 432.167 152.191C432.167 150.397 433.053 149.372 434.401 149.372C435.748 149.372 436.627 150.397 436.627 152.191C436.627 153.986 435.748 155.011 434.401 155.011ZM444.654 156H445.929V148.383H444.654V151.525H440.926V148.383H439.652V156H440.926V152.572H444.654V156ZM453.597 148.383H447.415V149.43H449.869V156H451.143V149.43H453.597V148.383ZM459.991 153.817C459.778 154.535 459.068 155.026 458.101 155.026C456.731 155.026 455.874 154.066 455.874 152.609V152.536H461.338V152.052C461.338 149.745 460.071 148.251 458.013 148.251C455.911 148.251 454.563 149.855 454.563 152.221C454.563 154.616 455.889 156.132 458.072 156.132C459.734 156.132 461.023 155.15 461.243 153.817H459.991ZM457.991 149.357C459.192 149.357 459.991 150.265 460.02 151.54H455.882C455.962 150.272 456.797 149.357 457.991 149.357ZM468.069 156H469.343V148.383H468.069V151.525H464.341V148.383H463.066V156H464.341V152.572H468.069V156ZM477.011 148.383H470.83V149.43H473.283V156H474.558V149.43H477.011V148.383ZM480.432 156.132C481.457 156.132 482.424 155.561 482.878 154.689H482.907V156H484.116V150.734C484.116 149.218 482.988 148.251 481.201 148.251C479.399 148.251 478.271 149.262 478.183 150.58H479.413C479.575 149.833 480.19 149.372 481.171 149.372C482.226 149.372 482.841 149.928 482.841 150.858V151.496L480.659 151.62C478.901 151.723 477.897 152.543 477.897 153.847C477.897 155.216 478.915 156.132 480.432 156.132ZM480.717 155.048C479.802 155.048 479.194 154.572 479.194 153.847C479.194 153.129 479.78 152.675 480.805 152.609L482.841 152.484V153.107C482.841 154.206 481.918 155.048 480.717 155.048Z" fill="#2D2C35"/>
<circle opacity="0.7" cx="264.5" cy="152.5" r="1.5" fill="#2D2C35"/>
<path d="M197.894 100H199.168V95.5615C199.168 94.2432 199.952 93.3789 201.219 93.3789C202.413 93.3789 203.021 94.104 203.021 95.3125V100H204.295V95.0781C204.295 93.3789 203.284 92.251 201.614 92.251C200.457 92.251 199.622 92.749 199.197 93.5986H199.168V89.4312H197.894V100ZM206.624 90.5444V92.3828H205.488V93.4302H206.624V98.0225C206.624 99.4873 207.166 100.059 208.565 100.059C208.865 100.059 209.217 100.037 209.37 100V98.9307C209.282 98.9453 208.989 98.9673 208.843 98.9673C208.191 98.9673 207.898 98.6523 207.898 97.9565V93.4302H209.378V92.3828H207.898V90.5444H206.624ZM211.04 100H212.314V95.2246C212.314 94.1699 213.047 93.3789 214.058 93.3789C215.002 93.3789 215.618 93.9795 215.618 94.895V100H216.892V95.1587C216.892 94.126 217.602 93.3789 218.613 93.3789C219.617 93.3789 220.195 93.9941 220.195 95.0342V100H221.47V94.7412C221.47 93.2324 220.496 92.251 218.987 92.251C217.917 92.251 217.024 92.793 216.599 93.7012H216.57C216.24 92.7783 215.471 92.251 214.431 92.251C213.406 92.251 212.629 92.793 212.27 93.5986H212.241V92.3828H211.04V100ZM223.462 100H224.736V89.4312H223.462V100ZM231.547 96.3086V95.1221H226.742V96.3086H231.547ZM236.835 100C238.454 100 239.45 99.1577 239.45 97.8101C239.45 96.8799 238.82 96.1987 237.86 96.0669V96.0083C238.563 95.8618 239.113 95.1367 239.113 94.353C239.113 93.1299 238.241 92.3828 236.813 92.3828H233.554V100H236.835ZM234.828 93.4155H236.623C237.421 93.4155 237.853 93.7964 237.853 94.4849C237.853 95.2246 237.392 95.5835 236.432 95.5835H234.828V93.4155ZM234.828 96.6089H236.535C237.648 96.6089 238.183 96.9897 238.183 97.7808C238.183 98.5498 237.685 98.9673 236.762 98.9673H234.828V96.6089ZM246.268 97.8174C246.056 98.5352 245.345 99.0259 244.379 99.0259C243.009 99.0259 242.152 98.0664 242.152 96.6089V96.5356H247.616V96.0522C247.616 93.7451 246.349 92.251 244.291 92.251C242.189 92.251 240.841 93.855 240.841 96.2207C240.841 98.6157 242.167 100.132 244.349 100.132C246.012 100.132 247.301 99.1504 247.521 97.8174H246.268ZM244.269 93.3569C245.47 93.3569 246.268 94.2651 246.298 95.5396H242.159C242.24 94.2725 243.075 93.3569 244.269 93.3569ZM253.05 92.251C251.944 92.251 251.058 92.8149 250.589 93.6719H250.56V92.3828H249.351V102.542H250.626V98.7622H250.655C251.109 99.5972 251.988 100.132 253.079 100.132C254.998 100.132 256.309 98.5791 256.309 96.1914C256.309 93.8037 254.991 92.251 253.05 92.251ZM252.801 99.0112C251.497 99.0112 250.619 97.8906 250.619 96.1914C250.619 94.4995 251.497 93.3716 252.801 93.3716C254.156 93.3716 255.006 94.4702 255.006 96.1914C255.006 97.9199 254.156 99.0112 252.801 99.0112ZM264.373 94.8804C264.212 93.5107 263.077 92.251 261.172 92.251C259.07 92.251 257.671 93.7891 257.671 96.1914C257.671 98.645 259.078 100.132 261.187 100.132C262.916 100.132 264.19 99.0625 264.388 97.5464H263.135C262.916 98.4619 262.234 99.0112 261.194 99.0112C259.876 99.0112 258.968 97.9639 258.968 96.1914C258.968 94.4629 259.861 93.3716 261.18 93.3716C262.3 93.3716 262.945 94.0527 263.128 94.8804H264.373ZM271.426 92.3828H265.244V93.4302H267.698V100H268.972V93.4302H271.426V92.3828ZM274.238 96.3379L277.512 100H279.153L275.505 95.9863L279.05 92.3828H277.476L274.238 95.752H274.18V92.3828H272.905V100H274.18V96.3379H274.238ZM282.529 100.132C283.554 100.132 284.521 99.5605 284.975 98.689H285.005V100H286.213V94.7339C286.213 93.2178 285.085 92.251 283.298 92.251C281.496 92.251 280.368 93.2617 280.28 94.5801H281.511C281.672 93.833 282.287 93.3716 283.269 93.3716C284.323 93.3716 284.939 93.9282 284.939 94.8584V95.4956L282.756 95.6201C280.998 95.7227 279.995 96.543 279.995 97.8467C279.995 99.2163 281.013 100.132 282.529 100.132ZM282.815 99.0479C281.899 99.0479 281.291 98.5718 281.291 97.8467C281.291 97.1289 281.877 96.6748 282.903 96.6089L284.939 96.4844V97.1069C284.939 98.2056 284.016 99.0479 282.815 99.0479Z" fill="#2D2C35"/>
<circle opacity="0.7" cx="190.5" cy="96.5" r="1.5" fill="#2D2C35"/>
<path d="M320.823 100H322.104V92.3828H315.894V100H317.168V93.4302H320.823V100ZM327.898 92.251C326.792 92.251 325.905 92.8149 325.437 93.6719H325.407V92.3828H324.199V102.542H325.473V98.7622H325.503C325.957 99.5972 326.836 100.132 327.927 100.132C329.846 100.132 331.157 98.5791 331.157 96.1914C331.157 93.8037 329.839 92.251 327.898 92.251ZM327.649 99.0112C326.345 99.0112 325.466 97.8906 325.466 96.1914C325.466 94.4995 326.345 93.3716 327.649 93.3716C329.004 93.3716 329.853 94.4702 329.853 96.1914C329.853 97.9199 329.004 99.0112 327.649 99.0112ZM336.049 100.132C338.151 100.132 339.572 98.6157 339.572 96.1914C339.572 93.7598 338.151 92.251 336.049 92.251C333.94 92.251 332.519 93.7598 332.519 96.1914C332.519 98.6157 333.94 100.132 336.049 100.132ZM336.049 99.0112C334.702 99.0112 333.815 97.9858 333.815 96.1914C333.815 94.397 334.702 93.3716 336.049 93.3716C337.397 93.3716 338.276 94.397 338.276 96.1914C338.276 97.9858 337.397 99.0112 336.049 99.0112ZM346.2 93.4302V92.3828H341.3V100H342.575V93.4302H346.2ZM351.591 92.251C350.485 92.251 349.598 92.8149 349.13 93.6719H349.1V92.3828H347.892V102.542H349.166V98.7622H349.196C349.65 99.5972 350.529 100.132 351.62 100.132C353.539 100.132 354.85 98.5791 354.85 96.1914C354.85 93.8037 353.532 92.251 351.591 92.251ZM351.342 99.0112C350.038 99.0112 349.159 97.8906 349.159 96.1914C349.159 94.4995 350.038 93.3716 351.342 93.3716C352.697 93.3716 353.546 94.4702 353.546 96.1914C353.546 97.9199 352.697 99.0112 351.342 99.0112ZM358.812 100.132C359.837 100.132 360.804 99.5605 361.258 98.689H361.288V100H362.496V94.7339C362.496 93.2178 361.368 92.251 359.581 92.251C357.779 92.251 356.651 93.2617 356.563 94.5801H357.794C357.955 93.833 358.57 93.3716 359.552 93.3716C360.606 93.3716 361.222 93.9282 361.222 94.8584V95.4956L359.039 95.6201C357.281 95.7227 356.278 96.543 356.278 97.8467C356.278 99.2163 357.296 100.132 358.812 100.132ZM359.098 99.0479C358.182 99.0479 357.574 98.5718 357.574 97.8467C357.574 97.1289 358.16 96.6748 359.186 96.6089L361.222 96.4844V97.1069C361.222 98.2056 360.299 99.0479 359.098 99.0479ZM365.814 100V94.5947H365.865L368.326 99.7803H369.3L371.761 94.5947H371.812V100H373.079V92.3828H371.592L368.868 98.3154H368.809L366.099 92.3828H364.554V100H365.814ZM376.426 100V94.5947H376.477L378.938 99.7803H379.912L382.373 94.5947H382.425V100H383.692V92.3828H382.205L379.48 98.3154H379.422L376.712 92.3828H375.166V100H376.426ZM387.039 100L390.833 94.3384H390.891V100H392.166V92.3828H390.906L387.112 98.0444H387.053V92.3828H385.779V100H387.039ZM397.959 92.251C396.853 92.251 395.967 92.8149 395.498 93.6719H395.469V92.3828H394.26V102.542H395.534V98.7622H395.564C396.018 99.5972 396.897 100.132 397.988 100.132C399.907 100.132 401.218 98.5791 401.218 96.1914C401.218 93.8037 399.9 92.251 397.959 92.251ZM397.71 99.0112C396.406 99.0112 395.527 97.8906 395.527 96.1914C395.527 94.4995 396.406 93.3716 397.71 93.3716C399.065 93.3716 399.914 94.4702 399.914 96.1914C399.914 97.9199 399.065 99.0112 397.71 99.0112ZM406.11 100.132C408.212 100.132 409.633 98.6157 409.633 96.1914C409.633 93.7598 408.212 92.251 406.11 92.251C404.001 92.251 402.58 93.7598 402.58 96.1914C402.58 98.6157 404.001 100.132 406.11 100.132ZM406.11 99.0112C404.763 99.0112 403.876 97.9858 403.876 96.1914C403.876 94.397 404.763 93.3716 406.11 93.3716C407.458 93.3716 408.337 94.397 408.337 96.1914C408.337 97.9858 407.458 99.0112 406.11 99.0112ZM414.643 100C416.261 100 417.258 99.1577 417.258 97.8101C417.258 96.8799 416.628 96.1987 415.668 96.0669V96.0083C416.371 95.8618 416.921 95.1367 416.921 94.353C416.921 93.1299 416.049 92.3828 414.621 92.3828H411.362V100H414.643ZM412.636 93.4155H414.43C415.229 93.4155 415.661 93.7964 415.661 94.4849C415.661 95.2246 415.199 95.5835 414.24 95.5835H412.636V93.4155ZM412.636 96.6089H414.342C415.456 96.6089 415.99 96.9897 415.99 97.7808C415.99 98.5498 415.492 98.9673 414.57 98.9673H412.636V96.6089ZM421.249 100.132C422.274 100.132 423.241 99.5605 423.695 98.689H423.725V100H424.933V94.7339C424.933 93.2178 423.805 92.251 422.018 92.251C420.216 92.251 419.088 93.2617 419 94.5801H420.231C420.392 93.833 421.007 93.3716 421.989 93.3716C423.043 93.3716 423.659 93.9282 423.659 94.8584V95.4956L421.476 95.6201C419.718 95.7227 418.715 96.543 418.715 97.8467C418.715 99.2163 419.733 100.132 421.249 100.132ZM421.535 99.0479C420.619 99.0479 420.011 98.5718 420.011 97.8467C420.011 97.1289 420.597 96.6748 421.622 96.6089L423.659 96.4844V97.1069C423.659 98.2056 422.736 99.0479 421.535 99.0479ZM431.993 100H433.268V92.3828H431.993V95.5249H428.265V92.3828H426.991V100H428.265V96.5723H431.993V100ZM436.622 100L440.416 94.3384H440.474V100H441.749V92.3828H440.489L436.695 98.0444H436.637V92.3828H435.362V100H436.622ZM448.897 97.8174C448.685 98.5352 447.974 99.0259 447.007 99.0259C445.638 99.0259 444.781 98.0664 444.781 96.6089V96.5356H450.245V96.0522C450.245 93.7451 448.978 92.251 446.919 92.251C444.817 92.251 443.47 93.855 443.47 96.2207C443.47 98.6157 444.795 100.132 446.978 100.132C448.641 100.132 449.93 99.1504 450.149 97.8174H448.897ZM446.897 93.3569C448.099 93.3569 448.897 94.2651 448.926 95.5396H444.788C444.869 94.2725 445.704 93.3569 446.897 93.3569Z" fill="#2D2C35"/>
<circle opacity="0.7" cx="308.5" cy="96.5" r="1.5" fill="#2D2C35"/>
<path d="M481.127 100.132C482.153 100.132 483.12 99.5605 483.574 98.689H483.603V100H484.812V94.7339C484.812 93.2178 483.684 92.251 481.896 92.251C480.095 92.251 478.967 93.2617 478.879 94.5801H480.109C480.271 93.833 480.886 93.3716 481.867 93.3716C482.922 93.3716 483.537 93.9282 483.537 94.8584V95.4956L481.354 95.6201C479.597 95.7227 478.593 96.543 478.593 97.8467C478.593 99.2163 479.611 100.132 481.127 100.132ZM481.413 99.0479C480.498 99.0479 479.89 98.5718 479.89 97.8467C479.89 97.1289 480.476 96.6748 481.501 96.6089L483.537 96.4844V97.1069C483.537 98.2056 482.614 99.0479 481.413 99.0479ZM487.301 102.014V100H493.212V102.014H494.399V98.9526H493.19V92.3828H487.946L487.653 96.6089C487.58 97.6343 487.309 98.5864 486.752 98.9526H486.115V102.014H487.301ZM491.923 98.9526H488.21V98.894C488.569 98.4106 488.766 97.583 488.832 96.6382L489.067 93.4302H491.923V98.9526ZM498.075 100.132C499.1 100.132 500.067 99.5605 500.521 98.689H500.551V100H501.759V94.7339C501.759 93.2178 500.631 92.251 498.844 92.251C497.042 92.251 495.914 93.2617 495.827 94.5801H497.057C497.218 93.833 497.833 93.3716 498.815 93.3716C499.87 93.3716 500.485 93.9282 500.485 94.8584V95.4956L498.302 95.6201C496.544 95.7227 495.541 96.543 495.541 97.8467C495.541 99.2163 496.559 100.132 498.075 100.132ZM498.361 99.0479C497.445 99.0479 496.837 98.5718 496.837 97.8467C496.837 97.1289 497.423 96.6748 498.449 96.6089L500.485 96.4844V97.1069C500.485 98.2056 499.562 99.0479 498.361 99.0479ZM508.746 100H510.028V92.3828H503.817V100H505.091V93.4302H508.746V100ZM517.689 92.3828H511.507V93.4302H513.961V100H515.235V93.4302H517.689V92.3828ZM520.428 100L524.222 94.3384H524.28V100H525.555V92.3828H524.295L520.501 98.0444H520.442V92.3828H519.168V100H520.428ZM530.923 100C532.542 100 533.538 99.1577 533.538 97.8101C533.538 96.8799 532.908 96.1987 531.948 96.0669V96.0083C532.652 95.8618 533.201 95.1367 533.201 94.353C533.201 93.1299 532.329 92.3828 530.901 92.3828H527.642V100H530.923ZM528.916 93.4155H530.711C531.509 93.4155 531.941 93.7964 531.941 94.4849C531.941 95.2246 531.48 95.5835 530.52 95.5835H528.916V93.4155ZM528.916 96.6089H530.623C531.736 96.6089 532.271 96.9897 532.271 97.7808C532.271 98.5498 531.773 98.9673 530.85 98.9673H528.916V96.6089ZM540.298 100H541.572V92.3828H540.298V95.5249H536.57V92.3828H535.295V100H536.57V96.5723H540.298V100ZM545.9 100.132C546.926 100.132 547.893 99.5605 548.347 98.689H548.376V100H549.585V94.7339C549.585 93.2178 548.457 92.251 546.67 92.251C544.868 92.251 543.74 93.2617 543.652 94.5801H544.882C545.044 93.833 545.659 93.3716 546.64 93.3716C547.695 93.3716 548.31 93.9282 548.31 94.8584V95.4956L546.128 95.6201C544.37 95.7227 543.366 96.543 543.366 97.8467C543.366 99.2163 544.384 100.132 545.9 100.132ZM546.186 99.0479C545.271 99.0479 544.663 98.5718 544.663 97.8467C544.663 97.1289 545.249 96.6748 546.274 96.6089L548.31 96.4844V97.1069C548.31 98.2056 547.387 99.0479 546.186 99.0479ZM555.825 100H557.099V92.3828H554.374C552.624 92.3828 551.496 93.3423 551.496 94.9097C551.496 95.957 552.148 96.748 553.224 97.0557L551.1 100H552.573L554.506 97.29H555.825V100ZM554.382 96.2427C553.4 96.2427 552.763 95.6787 552.763 94.8877C552.763 93.9722 553.393 93.4302 554.382 93.4302H555.825V96.2427H554.382ZM565.851 100C567.469 100 568.466 99.1577 568.466 97.8101C568.466 96.8799 567.836 96.1987 566.876 96.0669V96.0083C567.579 95.8618 568.129 95.1367 568.129 94.353C568.129 93.1299 567.257 92.3828 565.829 92.3828H562.57V100H565.851ZM563.844 93.4155H565.638C566.437 93.4155 566.869 93.7964 566.869 94.4849C566.869 95.2246 566.407 95.5835 565.448 95.5835H563.844V93.4155ZM563.844 96.6089H565.55C566.664 96.6089 567.198 96.9897 567.198 97.7808C567.198 98.5498 566.7 98.9673 565.778 98.9673H563.844V96.6089ZM575.284 97.8174C575.072 98.5352 574.361 99.0259 573.394 99.0259C572.025 99.0259 571.168 98.0664 571.168 96.6089V96.5356H576.632V96.0522C576.632 93.7451 575.365 92.251 573.307 92.251C571.204 92.251 569.857 93.855 569.857 96.2207C569.857 98.6157 571.183 100.132 573.365 100.132C575.028 100.132 576.317 99.1504 576.537 97.8174H575.284ZM573.285 93.3569C574.486 93.3569 575.284 94.2651 575.313 95.5396H571.175C571.256 94.2725 572.091 93.3569 573.285 93.3569ZM582.066 92.251C580.96 92.251 580.074 92.8149 579.605 93.6719H579.576V92.3828H578.367V102.542H579.642V98.7622H579.671C580.125 99.5972 581.004 100.132 582.095 100.132C584.014 100.132 585.325 98.5791 585.325 96.1914C585.325 93.8037 584.007 92.251 582.066 92.251ZM581.817 99.0112C580.513 99.0112 579.634 97.8906 579.634 96.1914C579.634 94.4995 580.513 93.3716 581.817 93.3716C583.172 93.3716 584.022 94.4702 584.022 96.1914C584.022 97.9199 583.172 99.0112 581.817 99.0112ZM593.389 94.8804C593.228 93.5107 592.093 92.251 590.188 92.251C588.086 92.251 586.687 93.7891 586.687 96.1914C586.687 98.645 588.094 100.132 590.203 100.132C591.931 100.132 593.206 99.0625 593.404 97.5464H592.151C591.931 98.4619 591.25 99.0112 590.21 99.0112C588.892 99.0112 587.984 97.9639 587.984 96.1914C587.984 94.4629 588.877 93.3716 590.196 93.3716C591.316 93.3716 591.961 94.0527 592.144 94.8804H593.389ZM600.442 92.3828H594.26V93.4302H596.714V100H597.988V93.4302H600.442V92.3828ZM603.254 96.3379L606.528 100H608.169L604.521 95.9863L608.066 92.3828H606.491L603.254 95.752H603.196V92.3828H601.921V100H603.196V96.3379H603.254ZM611.545 100.132C612.57 100.132 613.537 99.5605 613.991 98.689H614.02V100H615.229V94.7339C615.229 93.2178 614.101 92.251 612.314 92.251C610.512 92.251 609.384 93.2617 609.296 94.5801H610.527C610.688 93.833 611.303 93.3716 612.285 93.3716C613.339 93.3716 613.954 93.9282 613.954 94.8584V95.4956L611.772 95.6201C610.014 95.7227 609.011 96.543 609.011 97.8467C609.011 99.2163 610.029 100.132 611.545 100.132ZM611.83 99.0479C610.915 99.0479 610.307 98.5718 610.307 97.8467C610.307 97.1289 610.893 96.6748 611.918 96.6089L613.954 96.4844V97.1069C613.954 98.2056 613.032 99.0479 611.83 99.0479Z" fill="#2D2C35"/>
<circle opacity="0.7" cx="472.5" cy="96.5" r="1.5" fill="#2D2C35"/>
<path d="M304.6 65.251C303.494 65.251 302.607 65.8149 302.139 66.6719H302.109V65.3828H300.901V75.5415H302.175V71.7622H302.205C302.659 72.5972 303.538 73.1318 304.629 73.1318C306.548 73.1318 307.859 71.5791 307.859 69.1914C307.859 66.8037 306.541 65.251 304.6 65.251ZM304.351 72.0112C303.047 72.0112 302.168 70.8906 302.168 69.1914C302.168 67.4995 303.047 66.3716 304.351 66.3716C305.706 66.3716 306.555 67.4702 306.555 69.1914C306.555 70.9199 305.706 72.0112 304.351 72.0112ZM311.821 73.1318C312.846 73.1318 313.813 72.5605 314.267 71.689H314.297V73H315.505V67.7339C315.505 66.2178 314.377 65.251 312.59 65.251C310.788 65.251 309.66 66.2617 309.572 67.5801H310.803C310.964 66.833 311.579 66.3716 312.561 66.3716C313.615 66.3716 314.231 66.9282 314.231 67.8584V68.4956L312.048 68.6201C310.29 68.7227 309.287 69.543 309.287 70.8467C309.287 72.2163 310.305 73.1318 311.821 73.1318ZM312.107 72.0479C311.191 72.0479 310.583 71.5718 310.583 70.8467C310.583 70.1289 311.169 69.6748 312.195 69.6089L314.231 69.4844V70.1069C314.231 71.2056 313.308 72.0479 312.107 72.0479ZM320.104 73.1318C321.892 73.1318 323.078 72.1797 323.078 70.7734C323.078 69.9165 322.558 69.2866 321.555 69.0669V69.0083C322.346 68.8252 322.866 68.1221 322.866 67.3311C322.866 66.0933 321.921 65.251 320.185 65.251C318.574 65.251 317.475 66.0493 317.314 67.3091H318.552C318.654 66.7012 319.284 66.313 320.185 66.313C321.166 66.313 321.621 66.7817 321.621 67.4336C321.621 68.2026 321.108 68.5835 320.104 68.5835H318.962V69.6235H320.104C321.254 69.6235 321.826 69.9971 321.826 70.832C321.826 71.5571 321.21 72.0771 320.104 72.0771C319.16 72.0771 318.53 71.689 318.383 71.0225H317.094C317.226 72.3115 318.434 73.1318 320.104 73.1318ZM328.542 65.251C327.436 65.251 326.549 65.8149 326.081 66.6719H326.051V65.3828H324.843V75.5415H326.117V71.7622H326.147C326.601 72.5972 327.48 73.1318 328.571 73.1318C330.49 73.1318 331.801 71.5791 331.801 69.1914C331.801 66.8037 330.483 65.251 328.542 65.251ZM328.293 72.0112C326.989 72.0112 326.11 70.8906 326.11 69.1914C326.11 67.4995 326.989 66.3716 328.293 66.3716C329.648 66.3716 330.497 67.4702 330.497 69.1914C330.497 70.9199 329.648 72.0112 328.293 72.0112ZM335.763 73.1318C336.788 73.1318 337.755 72.5605 338.209 71.689H338.239V73H339.447V67.7339C339.447 66.2178 338.319 65.251 336.532 65.251C334.73 65.251 333.602 66.2617 333.514 67.5801H334.745C334.906 66.833 335.521 66.3716 336.503 66.3716C337.557 66.3716 338.173 66.9282 338.173 67.8584V68.4956L335.99 68.6201C334.232 68.7227 333.229 69.543 333.229 70.8467C333.229 72.2163 334.247 73.1318 335.763 73.1318ZM336.049 72.0479C335.133 72.0479 334.525 71.5718 334.525 70.8467C334.525 70.1289 335.111 69.6748 336.137 69.6089L338.173 69.4844V70.1069C338.173 71.2056 337.25 72.0479 336.049 72.0479ZM344.771 73.1318C346.976 73.1318 348.331 71.6597 348.331 69.2646C348.331 66.9941 347.02 65.5439 344.962 65.5439C343.79 65.5439 342.838 66.0127 342.34 66.9136H342.281C342.589 64.6357 343.219 63.7056 345.335 63.625L345.899 63.603C346.778 63.5664 347.584 63.376 347.826 63.1562V62.043C347.394 62.27 346.573 62.4165 345.841 62.4531L345.277 62.4751C342.318 62.585 341.205 64.3354 341.205 68.5396C341.205 71.5645 342.435 73.1318 344.771 73.1318ZM344.771 72.0039C343.336 72.0039 342.508 71.0151 342.508 69.2646C342.508 67.6021 343.336 66.6572 344.771 66.6572C346.2 66.6572 347.027 67.6021 347.027 69.2646C347.027 71.0151 346.2 72.0039 344.771 72.0039ZM353.216 73.1318C355.318 73.1318 356.739 71.6157 356.739 69.1914C356.739 66.7598 355.318 65.251 353.216 65.251C351.107 65.251 349.686 66.7598 349.686 69.1914C349.686 71.6157 351.107 73.1318 353.216 73.1318ZM353.216 72.0112C351.868 72.0112 350.982 70.9858 350.982 69.1914C350.982 67.397 351.868 66.3716 353.216 66.3716C354.564 66.3716 355.443 67.397 355.443 69.1914C355.443 70.9858 354.564 72.0112 353.216 72.0112ZM363.748 65.3828H357.566V66.4302H360.02V73H361.294V66.4302H363.748V65.3828ZM366.56 69.3379L369.834 73H371.475L367.827 68.9863L371.372 65.3828H369.797L366.56 68.752H366.502V65.3828H365.227V73H366.502V69.3379H366.56ZM374.851 73.1318C375.876 73.1318 376.843 72.5605 377.297 71.689H377.326V73H378.535V67.7339C378.535 66.2178 377.407 65.251 375.62 65.251C373.818 65.251 372.69 66.2617 372.602 67.5801H373.833C373.994 66.833 374.609 66.3716 375.591 66.3716C376.645 66.3716 377.261 66.9282 377.261 67.8584V68.4956L375.078 68.6201C373.32 68.7227 372.317 69.543 372.317 70.8467C372.317 72.2163 373.335 73.1318 374.851 73.1318ZM375.137 72.0479C374.221 72.0479 373.613 71.5718 373.613 70.8467C373.613 70.1289 374.199 69.6748 375.224 69.6089L377.261 69.4844V70.1069C377.261 71.2056 376.338 72.0479 375.137 72.0479ZM388.898 73H390.18V65.3828H383.969V73H385.243V66.4302H388.898V73ZM395.973 65.251C394.867 65.251 393.981 65.8149 393.512 66.6719H393.483V65.3828H392.274V75.5415H393.549V71.7622H393.578C394.032 72.5972 394.911 73.1318 396.002 73.1318C397.921 73.1318 399.232 71.5791 399.232 69.1914C399.232 66.8037 397.914 65.251 395.973 65.251ZM395.724 72.0112C394.42 72.0112 393.541 70.8906 393.541 69.1914C393.541 67.4995 394.42 66.3716 395.724 66.3716C397.079 66.3716 397.929 67.4702 397.929 69.1914C397.929 70.9199 397.079 72.0112 395.724 72.0112ZM404.125 73.1318C406.227 73.1318 407.648 71.6157 407.648 69.1914C407.648 66.7598 406.227 65.251 404.125 65.251C402.015 65.251 400.594 66.7598 400.594 69.1914C400.594 71.6157 402.015 73.1318 404.125 73.1318ZM404.125 72.0112C402.777 72.0112 401.891 70.9858 401.891 69.1914C401.891 67.397 402.777 66.3716 404.125 66.3716C405.472 66.3716 406.351 67.397 406.351 69.1914C406.351 70.9858 405.472 72.0112 404.125 72.0112ZM414.657 65.3828H408.475V66.4302H410.929V73H412.203V66.4302H414.657V65.3828ZM419.153 73.1318C421.255 73.1318 422.676 71.6157 422.676 69.1914C422.676 66.7598 421.255 65.251 419.153 65.251C417.044 65.251 415.623 66.7598 415.623 69.1914C415.623 71.6157 417.044 73.1318 419.153 73.1318ZM419.153 72.0112C417.806 72.0112 416.919 70.9858 416.919 69.1914C416.919 67.397 417.806 66.3716 419.153 66.3716C420.501 66.3716 421.38 67.397 421.38 69.1914C421.38 70.9858 420.501 72.0112 419.153 72.0112ZM429.685 65.3828H423.504V66.4302H425.957V73H427.232V66.4302H429.685V65.3828ZM432.424 73L436.218 67.3384H436.277V73H437.551V65.3828H436.291L432.497 71.0444H432.439V65.3828H431.164V73H432.424ZM444.567 73H445.849V65.3828H439.638V73H440.913V66.4302H444.567V73ZM450.17 73.1318C451.196 73.1318 452.162 72.5605 452.617 71.689H452.646V73H453.854V67.7339C453.854 66.2178 452.726 65.251 450.939 65.251C449.137 65.251 448.01 66.2617 447.922 67.5801H449.152C449.313 66.833 449.929 66.3716 450.91 66.3716C451.965 66.3716 452.58 66.9282 452.58 67.8584V68.4956L450.397 68.6201C448.639 68.7227 447.636 69.543 447.636 70.8467C447.636 72.2163 448.654 73.1318 450.17 73.1318ZM450.456 72.0479C449.54 72.0479 448.932 71.5718 448.932 70.8467C448.932 70.1289 449.518 69.6748 450.544 69.6089L452.58 69.4844V70.1069C452.58 71.2056 451.657 72.0479 450.456 72.0479Z" fill="#2D2C35"/>
<circle opacity="0.7" cx="293.5" cy="69.5" r="1.5" fill="#2D2C35"/>
<path d="M486.823 73H488.104V65.3828H481.894V73H483.168V66.4302H486.823V73ZM493.898 65.251C492.792 65.251 491.905 65.8149 491.437 66.6719H491.407V65.3828H490.199V75.5415H491.473V71.7622H491.503C491.957 72.5972 492.836 73.1318 493.927 73.1318C495.846 73.1318 497.157 71.5791 497.157 69.1914C497.157 66.8037 495.839 65.251 493.898 65.251ZM493.649 72.0112C492.345 72.0112 491.466 70.8906 491.466 69.1914C491.466 67.4995 492.345 66.3716 493.649 66.3716C495.004 66.3716 495.853 67.4702 495.853 69.1914C495.853 70.9199 495.004 72.0112 493.649 72.0112ZM502.049 73.1318C504.151 73.1318 505.572 71.6157 505.572 69.1914C505.572 66.7598 504.151 65.251 502.049 65.251C499.94 65.251 498.519 66.7598 498.519 69.1914C498.519 71.6157 499.94 73.1318 502.049 73.1318ZM502.049 72.0112C500.702 72.0112 499.815 70.9858 499.815 69.1914C499.815 67.397 500.702 66.3716 502.049 66.3716C503.397 66.3716 504.276 67.397 504.276 69.1914C504.276 70.9858 503.397 72.0112 502.049 72.0112ZM507.586 75.0142V73H513.497V75.0142H514.683V71.9526H513.475V65.3828H508.231L507.938 69.6089C507.864 70.6343 507.593 71.5864 507.037 71.9526H506.4V75.0142H507.586ZM512.208 71.9526H508.494V71.894C508.853 71.4106 509.051 70.583 509.117 69.6382L509.351 66.4302H512.208V71.9526ZM518.36 73.1318C519.385 73.1318 520.352 72.5605 520.806 71.689H520.835V73H522.044V67.7339C522.044 66.2178 520.916 65.251 519.129 65.251C517.327 65.251 516.199 66.2617 516.111 67.5801H517.342C517.503 66.833 518.118 66.3716 519.099 66.3716C520.154 66.3716 520.769 66.9282 520.769 67.8584V68.4956L518.587 68.6201C516.829 68.7227 515.825 69.543 515.825 70.8467C515.825 72.2163 516.844 73.1318 518.36 73.1318ZM518.645 72.0479C517.73 72.0479 517.122 71.5718 517.122 70.8467C517.122 70.1289 517.708 69.6748 518.733 69.6089L520.769 69.4844V70.1069C520.769 71.2056 519.846 72.0479 518.645 72.0479ZM530.107 73.1318C532.246 73.1318 533.564 71.6377 533.564 69.1914C533.564 66.7378 532.246 65.251 530.107 65.251C528.174 65.251 526.914 66.4741 526.687 68.5249H525.376V65.3828H524.102V73H525.376V69.5723H526.658C526.797 71.7915 528.086 73.1318 530.107 73.1318ZM530.107 72.0039C528.73 72.0039 527.954 70.9785 527.954 69.1914C527.954 67.397 528.73 66.3789 530.107 66.3789C531.484 66.3789 532.261 67.397 532.261 69.1914C532.261 70.9785 531.484 72.0039 530.107 72.0039ZM535.285 73H544.712V75.0874H545.935V71.9453H544.69V65.3828H543.415V71.9526H540.625V65.3828H539.35V71.9526H536.56V65.3828H535.285V73ZM548.608 73L552.402 67.3384H552.46V73H553.735V65.3828H552.475L548.681 71.0444H548.622V65.3828H547.348V73H548.608ZM560.883 70.8174C560.671 71.5352 559.96 72.0259 558.993 72.0259C557.624 72.0259 556.767 71.0664 556.767 69.6089V69.5356H562.231V69.0522C562.231 66.7451 560.963 65.251 558.905 65.251C556.803 65.251 555.456 66.855 555.456 69.2207C555.456 71.6157 556.781 73.1318 558.964 73.1318C560.627 73.1318 561.916 72.1504 562.135 70.8174H560.883ZM558.883 66.3569C560.085 66.3569 560.883 67.2651 560.912 68.5396H556.774C556.855 67.2725 557.69 66.3569 558.883 66.3569ZM572.909 65.3828H566.727V66.4302H569.181V73H570.455V66.4302H572.909V65.3828ZM579.302 70.8174C579.09 71.5352 578.38 72.0259 577.413 72.0259C576.043 72.0259 575.186 71.0664 575.186 69.6089V69.5356H580.65V69.0522C580.65 66.7451 579.383 65.251 577.325 65.251C575.223 65.251 573.875 66.855 573.875 69.2207C573.875 71.6157 575.201 73.1318 577.383 73.1318C579.046 73.1318 580.335 72.1504 580.555 70.8174H579.302ZM577.303 66.3569C578.504 66.3569 579.302 67.2651 579.332 68.5396H575.194C575.274 67.2725 576.109 66.3569 577.303 66.3569ZM583.711 69.3379L586.985 73H588.626L584.978 68.9863L588.523 65.3828H586.949L583.711 68.752H583.653V65.3828H582.378V73H583.653V69.3379H583.711ZM596.177 67.8804C596.016 66.5107 594.88 65.251 592.976 65.251C590.874 65.251 589.475 66.7891 589.475 69.1914C589.475 71.645 590.881 73.1318 592.991 73.1318C594.719 73.1318 595.994 72.0625 596.192 70.5464H594.939C594.719 71.4619 594.038 72.0112 592.998 72.0112C591.68 72.0112 590.772 70.9639 590.772 69.1914C590.772 67.4629 591.665 66.3716 592.983 66.3716C594.104 66.3716 594.749 67.0527 594.932 67.8804H596.177ZM603.23 65.3828H597.048V66.4302H599.502V73H600.776V66.4302H603.23V65.3828ZM611.228 73H612.487V65.3828H611.228V73ZM604.709 73H607.412C609.155 73 610.275 71.9966 610.275 70.4072C610.275 68.8179 609.155 67.8145 607.412 67.8145H605.983V65.3828H604.709V73ZM607.39 68.8618C608.371 68.8618 609.016 69.4697 609.016 70.4072C609.016 71.3374 608.378 71.9526 607.39 71.9526H605.983V68.8618H607.39Z" fill="#2D2C35"/>
<circle opacity="0.7" cx="475.5" cy="69.5" r="1.5" fill="#2D2C35"/>
<circle opacity="0.7" cx="59.5" cy="180.5" r="1.5" fill="#8100E9"/>
<path d="M66.8091 186.029V184H72.3169V186.029H73.9868V182.594H72.8076V176.236H66.9043L66.6333 180.287C66.5601 181.334 66.3257 182.257 65.7544 182.594H65.1392V186.029H66.8091ZM70.9912 182.594H67.666V182.535C68.0249 182.022 68.2007 181.261 68.2593 180.382L68.457 177.635H70.9912V182.594ZM78.7106 184.154C80.9885 184.154 82.468 182.638 82.468 180.118C82.468 177.606 80.9738 176.075 78.7106 176.075C76.4475 176.075 74.9533 177.613 74.9533 180.118C74.9533 182.638 76.4401 184.154 78.7106 184.154ZM78.7106 182.711C77.5534 182.711 76.8063 181.773 76.8063 180.118C76.8063 178.47 77.5607 177.525 78.7106 177.525C79.8679 177.525 80.6149 178.47 80.6149 180.118C80.6149 181.773 79.8679 182.711 78.7106 182.711ZM85.8148 184V178.69H85.8661L88.0561 183.641H89.3451L91.5351 178.69H91.5937V184H93.3295V176.236H91.0443L88.7519 181.656H88.6933L86.4008 176.236H84.079V184H85.8148ZM100.397 181.678C100.199 182.323 99.5548 182.748 98.7052 182.748C97.5187 182.748 96.7496 181.913 96.7496 180.667V180.558H102.184V179.964C102.184 177.606 100.8 176.075 98.6026 176.075C96.3614 176.075 94.9332 177.694 94.9332 180.147C94.9332 182.623 96.3395 184.154 98.6686 184.154C100.514 184.154 101.877 183.143 102.104 181.678H100.397ZM98.61 177.489C99.65 177.489 100.353 178.258 100.39 179.356H96.7716C96.8448 178.272 97.5772 177.489 98.61 177.489ZM108.871 184H110.695V176.236H108.871V179.298H105.604V176.236H103.781V184H105.604V180.704H108.871V184ZM117.725 184L121.094 178.785H121.153V184H122.947V176.236H121.16L117.799 181.415H117.74V176.236H115.938V184H117.725ZM131.209 181.217L132.82 184H134.819L132.344 180.074L134.841 176.236H132.842L131.296 178.961H131.26L129.7 176.236H127.649L130.132 180.125L127.62 184H129.568L131.172 181.217H131.209ZM139.441 184.154C141.719 184.154 143.198 182.638 143.198 180.118C143.198 177.606 141.704 176.075 139.441 176.075C137.178 176.075 135.683 177.613 135.683 180.118C135.683 182.638 137.17 184.154 139.441 184.154ZM139.441 182.711C138.283 182.711 137.536 181.773 137.536 180.118C137.536 178.47 138.291 177.525 139.441 177.525C140.598 177.525 141.345 178.47 141.345 180.118C141.345 181.773 140.598 182.711 139.441 182.711ZM151.643 179.005C151.518 177.372 150.251 176.075 148.208 176.075C145.944 176.075 144.479 177.635 144.479 180.118C144.479 182.638 145.952 184.154 148.222 184.154C150.163 184.154 151.511 183.011 151.65 181.275H149.929C149.76 182.154 149.16 182.682 148.237 182.682C147.087 182.682 146.333 181.744 146.333 180.118C146.333 178.521 147.08 177.555 148.229 177.555C149.196 177.555 149.782 178.177 149.921 179.005H151.643ZM159.069 176.236H152.485V177.643H154.865V184H156.689V177.643H159.069V176.236ZM162.284 184L165.653 178.785H165.712V184H167.506V176.236H165.719L162.357 181.415H162.299V176.236H160.497V184H162.284ZM174.53 184H176.354V176.236H174.53V179.298H171.263V176.236H169.44V184H171.263V180.704H174.53V184ZM183.56 177.643V176.236H178.294V184H180.118V177.643H183.56ZM202.632 180.543V178.888H187.632V180.543H202.632ZM210.791 184C212.512 184 213.581 183.128 213.581 181.759C213.581 180.799 212.893 180.089 211.875 179.964V179.906C212.644 179.774 213.237 179.042 213.237 178.221C213.237 176.983 212.299 176.236 210.732 176.236H207.048V184H210.791ZM208.85 177.474H210.3C211.032 177.474 211.442 177.818 211.442 178.441C211.442 179.093 211.01 179.43 210.161 179.43H208.85V177.474ZM208.85 180.594H210.263C211.245 180.594 211.75 180.953 211.75 181.664C211.75 182.374 211.281 182.762 210.41 182.762H208.85V180.594ZM223.549 184H225.38V176.236H218.532V184H220.355V177.643H223.549V184ZM230.741 184.154C233.019 184.154 234.498 182.638 234.498 180.118C234.498 177.606 233.004 176.075 230.741 176.075C228.478 176.075 226.984 177.613 226.984 180.118C226.984 182.638 228.47 184.154 230.741 184.154ZM230.741 182.711C229.584 182.711 228.837 181.773 228.837 180.118C228.837 178.47 229.591 177.525 230.741 177.525C231.898 177.525 232.645 178.47 232.645 180.118C232.645 181.773 231.898 182.711 230.741 182.711ZM236.974 186.029V184H242.481V186.029H244.151V182.594H242.972V176.236H237.069L236.798 180.287C236.725 181.334 236.49 182.257 235.919 182.594H235.304V186.029H236.974ZM241.156 182.594H237.83V182.535C238.189 182.022 238.365 181.261 238.424 180.382L238.621 177.635H241.156V182.594ZM247.762 184.125C248.758 184.125 249.725 183.604 250.171 182.762H250.208V184H251.966V178.653C251.966 177.093 250.721 176.075 248.787 176.075C246.81 176.075 245.572 177.115 245.491 178.565H247.183C247.308 177.921 247.85 177.503 248.714 177.503C249.615 177.503 250.164 177.972 250.164 178.785V179.342L248.113 179.459C246.231 179.576 245.162 180.404 245.162 181.781C245.162 183.18 246.253 184.125 247.762 184.125ZM248.311 182.748C247.52 182.748 246.985 182.345 246.985 181.708C246.985 181.092 247.491 180.697 248.37 180.638L250.164 180.528V181.122C250.164 182.059 249.344 182.748 248.311 182.748ZM258.118 176.104C256.99 176.104 256.118 176.676 255.672 177.577H255.635V176.236H253.855V186.556H255.679V182.711H255.716C256.148 183.583 257.027 184.125 258.147 184.125C260.096 184.125 261.348 182.594 261.348 180.118C261.348 177.635 260.088 176.104 258.118 176.104ZM257.569 182.63C256.426 182.63 255.672 181.642 255.672 180.118C255.672 178.609 256.426 177.606 257.569 177.606C258.741 177.606 259.48 178.587 259.48 180.118C259.48 181.656 258.741 182.63 257.569 182.63ZM266.379 184.154C268.657 184.154 270.137 182.638 270.137 180.118C270.137 177.606 268.643 176.075 266.379 176.075C264.116 176.075 262.622 177.613 262.622 180.118C262.622 182.638 264.109 184.154 266.379 184.154ZM266.379 182.711C265.222 182.711 264.475 181.773 264.475 180.118C264.475 178.47 265.229 177.525 266.379 177.525C267.537 177.525 268.284 178.47 268.284 180.118C268.284 181.773 267.537 182.711 266.379 182.711ZM273.63 180.528L276.508 184H278.742L275.307 179.862L278.589 176.236H276.465L273.63 179.474H273.571V176.236H271.748V184H273.571V180.528H273.63Z" fill="#8100E9"/>
<path d="M203.597 37.0215V35H209.28V37.0215H210.745V33.7476H209.551V27.2949H203.934L203.655 31.4258C203.582 32.4658 203.326 33.396 202.762 33.7476H202.139V37.0215H203.597ZM207.977 33.7476H204.483V33.689C204.834 33.1909 205.025 32.3999 205.083 31.4917L205.296 28.5474H207.977V33.7476ZM214.488 31.4917L214.693 28.5474H217.044V35H218.633V27.2949H213.294L213.03 31.4258C212.942 32.7661 212.678 33.6597 211.931 33.6597C211.734 33.6597 211.587 33.623 211.514 33.6011V34.9927C211.609 35.0293 211.792 35.0732 212.049 35.0732C213.777 35.0732 214.341 33.6743 214.488 31.4917ZM224.939 35H226.506V27.2949H223.474C221.672 27.2949 220.5 28.291 220.5 29.895C220.5 30.9717 221.16 31.77 222.229 32.085L220.127 35H221.929L223.789 32.356H224.939V35ZM223.555 31.1401C222.661 31.1401 222.075 30.6201 222.075 29.8877C222.075 29.0527 222.654 28.54 223.555 28.54H224.939V31.1401H223.555ZM233.376 35V29.6533H233.427L235.734 34.6997H236.891L239.199 29.6533H239.25V35H240.788V27.2949H238.847L236.364 32.9419H236.305L233.837 27.2949H231.852V35H233.376ZM245.043 35.1318C246.054 35.1318 247.028 34.5898 247.475 33.7329H247.511V35H249.027V29.6899C249.027 28.1445 247.833 27.1558 245.966 27.1558C244.062 27.1558 242.875 28.1812 242.787 29.5728H244.281C244.42 28.8843 244.992 28.4448 245.907 28.4448C246.874 28.4448 247.453 28.9575 247.453 29.8145V30.4077L245.343 30.5322C243.512 30.6348 242.479 31.4624 242.479 32.8101C242.479 34.1943 243.542 35.1318 245.043 35.1318ZM245.482 33.8794C244.64 33.8794 244.076 33.4399 244.076 32.7661C244.076 32.1069 244.611 31.6895 245.556 31.6235L247.453 31.5063V32.1143C247.453 33.1177 246.588 33.8794 245.482 33.8794ZM253.341 31.4917L253.546 28.5474H255.897V35H257.487V27.2949H252.147L251.883 31.4258C251.796 32.7661 251.532 33.6597 250.785 33.6597C250.587 33.6597 250.441 33.623 250.367 33.6011V34.9927C250.463 35.0293 250.646 35.0732 250.902 35.0732C252.631 35.0732 253.195 33.6743 253.341 31.4917ZM262.796 35.1465C265.001 35.1465 266.451 33.6304 266.451 31.1475C266.451 28.6719 264.994 27.1558 262.796 27.1558C260.606 27.1558 259.142 28.6719 259.142 31.1475C259.142 33.6304 260.592 35.1465 262.796 35.1465ZM262.796 33.8428C261.558 33.8428 260.753 32.8613 260.753 31.1475C260.753 29.4409 261.566 28.4595 262.796 28.4595C264.034 28.4595 264.84 29.4409 264.84 31.1475C264.84 32.8613 264.041 33.8428 262.796 33.8428ZM273.211 28.5474V27.2949H268.106V35H269.688V28.5474H273.211ZM277.898 35.1465C280.103 35.1465 281.553 33.6304 281.553 31.1475C281.553 28.6719 280.096 27.1558 277.898 27.1558C275.708 27.1558 274.243 28.6719 274.243 31.1475C274.243 33.6304 275.694 35.1465 277.898 35.1465ZM277.898 33.8428C276.66 33.8428 275.855 32.8613 275.855 31.1475C275.855 29.4409 276.668 28.4595 277.898 28.4595C279.136 28.4595 279.942 29.4409 279.942 31.1475C279.942 32.8613 279.143 33.8428 277.898 33.8428ZM288.115 35L291.66 29.5874H291.718V35H293.293V27.2949H291.733L288.181 32.6855H288.122V27.2949H286.555V35H288.115ZM305.253 29.9463C305.114 28.4302 303.905 27.1558 301.921 27.1558C299.731 27.1558 298.295 28.7012 298.295 31.1475C298.295 33.6377 299.731 35.1465 301.935 35.1465C303.788 35.1465 305.099 34.0332 305.268 32.3926H303.752C303.561 33.2861 302.924 33.8208 301.95 33.8208C300.727 33.8208 299.906 32.8394 299.906 31.1475C299.906 29.4922 300.712 28.4741 301.935 28.4741C302.968 28.4741 303.583 29.126 303.744 29.9463H305.253ZM310.834 27.1704C309.721 27.1704 308.834 27.7344 308.38 28.6206H308.351V27.2949H306.82V37.5488H308.402V33.7329H308.439C308.878 34.5898 309.757 35.1318 310.863 35.1318C312.804 35.1318 314.078 33.5864 314.078 31.1475C314.078 28.7085 312.797 27.1704 310.834 27.1704ZM310.416 33.7915C309.208 33.7915 308.395 32.7515 308.395 31.1475C308.395 29.5581 309.208 28.5034 310.416 28.5034C311.669 28.5034 312.452 29.5361 312.452 31.1475C312.452 32.7661 311.669 33.7915 310.416 33.7915ZM320.838 32.7368C320.633 33.4106 319.959 33.8647 319.059 33.8647C317.792 33.8647 316.986 32.9785 316.986 31.6382V31.543H322.428V31.001C322.428 28.6646 321.095 27.1558 318.963 27.1558C316.781 27.1558 315.389 28.7671 315.389 31.1841C315.389 33.6157 316.759 35.1465 319.022 35.1465C320.787 35.1465 322.12 34.1431 322.347 32.7368H320.838ZM318.956 28.4302C320.062 28.4302 320.809 29.2578 320.846 30.437H317C317.074 29.2725 317.85 28.4302 318.956 28.4302ZM324.705 37.0215V35H330.389V37.0215H331.854V33.7476H330.66V27.2949H325.042L324.764 31.4258C324.691 32.4658 324.434 33.396 323.87 33.7476H323.248V37.0215H324.705ZM329.085 33.7476H325.592V33.689C325.943 33.1909 326.133 32.3999 326.192 31.4917L326.404 28.5474H329.085V33.7476ZM338.277 35H339.859V27.2949H338.277V30.4004H334.805V27.2949H333.223V35H334.805V31.6455H338.277V35ZM346.978 32.7368C346.773 33.4106 346.099 33.8647 345.198 33.8647C343.931 33.8647 343.125 32.9785 343.125 31.6382V31.543H348.567V31.001C348.567 28.6646 347.234 27.1558 345.103 27.1558C342.92 27.1558 341.528 28.7671 341.528 31.1841C341.528 33.6157 342.898 35.1465 345.161 35.1465C346.926 35.1465 348.259 34.1431 348.486 32.7368H346.978ZM345.095 28.4302C346.201 28.4302 346.948 29.2578 346.985 30.437H343.14C343.213 29.2725 343.989 28.4302 345.095 28.4302ZM355.334 28.5474V27.2949H350.229V35H351.811V28.5474H355.334ZM360.021 35.1465C362.226 35.1465 363.676 33.6304 363.676 31.1475C363.676 28.6719 362.219 27.1558 360.021 27.1558C357.832 27.1558 356.367 28.6719 356.367 31.1475C356.367 33.6304 357.817 35.1465 360.021 35.1465ZM360.021 33.8428C358.784 33.8428 357.978 32.8613 357.978 31.1475C357.978 29.4409 358.791 28.4595 360.021 28.4595C361.259 28.4595 362.065 29.4409 362.065 31.1475C362.065 32.8613 361.267 33.8428 360.021 33.8428ZM372.113 35.1465C374.384 35.1465 375.783 33.6597 375.783 31.2354C375.783 28.9648 374.45 27.5146 372.37 27.5146C371.161 27.5146 370.231 28.0127 369.74 28.9209H369.682C369.967 26.7456 370.619 25.8228 372.677 25.7495L373.351 25.7275C374.296 25.6909 375.079 25.5005 375.277 25.3174V24.0063C374.926 24.1968 374.091 24.3506 373.263 24.3872L372.575 24.4092C369.645 24.5117 368.4 26.2476 368.4 30.5249C368.4 33.5718 369.704 35.1465 372.113 35.1465ZM372.099 33.8208C370.78 33.8208 370.018 32.8979 370.018 31.2573C370.018 29.6973 370.788 28.8037 372.099 28.8037C373.402 28.8037 374.164 29.6973 374.164 31.2573C374.164 32.8979 373.402 33.8208 372.099 33.8208ZM379.005 35L382.55 29.5874H382.608V35H384.183V27.2949H382.623L379.071 32.6855H379.012V27.2949H377.445V35H379.005ZM388.958 35.1465C390.87 35.1465 392.1 34.1724 392.1 32.7515C392.1 31.8799 391.573 31.2427 390.526 31.0229V30.9644C391.361 30.7739 391.888 30.1001 391.888 29.2871C391.888 27.9907 390.841 27.1558 389.032 27.1558C387.222 27.1558 386.131 28.0347 385.97 29.397H387.479C387.581 28.7891 388.138 28.4155 389.002 28.4155C389.925 28.4155 390.343 28.855 390.343 29.4556C390.343 30.144 389.896 30.5176 388.936 30.5176H387.83V31.6528H388.944C390.006 31.6528 390.533 32.0044 390.533 32.7588C390.533 33.4253 389.962 33.894 388.944 33.894C388.05 33.894 387.464 33.5352 387.31 32.8613H385.758C385.897 34.3335 387.208 35.1465 388.958 35.1465ZM398.846 35H400.428V27.2949H398.846V30.4004H395.374V27.2949H393.792V35H395.374V31.6455H398.846V35ZM407.547 32.7368C407.342 33.4106 406.668 33.8647 405.767 33.8647C404.5 33.8647 403.694 32.9785 403.694 31.6382V31.543H409.136V31.001C409.136 28.6646 407.803 27.1558 405.672 27.1558C403.489 27.1558 402.097 28.7671 402.097 31.1841C402.097 33.6157 403.467 35.1465 405.73 35.1465C407.495 35.1465 408.828 34.1431 409.055 32.7368H407.547ZM405.664 28.4302C406.77 28.4302 407.517 29.2578 407.554 30.437H403.709C403.782 29.2725 404.558 28.4302 405.664 28.4302ZM417.412 29.9463C417.273 28.4302 416.064 27.1558 414.079 27.1558C411.89 27.1558 410.454 28.7012 410.454 31.1475C410.454 33.6377 411.89 35.1465 414.094 35.1465C415.947 35.1465 417.258 34.0332 417.427 32.3926H415.911C415.72 33.2861 415.083 33.8208 414.109 33.8208C412.886 33.8208 412.065 32.8394 412.065 31.1475C412.065 29.4922 412.871 28.4741 414.094 28.4741C415.127 28.4741 415.742 29.126 415.903 29.9463H417.412ZM421.235 35.1318C422.246 35.1318 423.22 34.5898 423.667 33.7329H423.703V35H425.219V29.6899C425.219 28.1445 424.025 27.1558 422.158 27.1558C420.254 27.1558 419.067 28.1812 418.979 29.5728H420.473C420.612 28.8843 421.184 28.4448 422.099 28.4448C423.066 28.4448 423.645 28.9575 423.645 29.8145V30.4077L421.535 30.5322C419.704 30.6348 418.671 31.4624 418.671 32.8101C418.671 34.1943 419.733 35.1318 421.235 35.1318ZM421.674 33.8794C420.832 33.8794 420.268 33.4399 420.268 32.7661C420.268 32.1069 420.803 31.6895 421.748 31.6235L423.645 31.5063V32.1143C423.645 33.1177 422.78 33.8794 421.674 33.8794Z" fill="#2D2C35"/>
<path d="M196.034 27L188.811 34.2232L185.966 31.3776L185 32.3432L188.811 36.1544L197 27.9656L196.034 27Z" fill="#8100E9"/>
<path d="M488.597 37.0215V35H494.28V37.0215H495.745V33.7476H494.551V27.2949H488.934L488.655 31.4258C488.582 32.4658 488.326 33.396 487.762 33.7476H487.139V37.0215H488.597ZM492.977 33.7476H489.483V33.689C489.834 33.1909 490.025 32.3999 490.083 31.4917L490.296 28.5474H492.977V33.7476ZM499.488 31.4917L499.693 28.5474H502.044V35H503.633V27.2949H498.294L498.03 31.4258C497.942 32.7661 497.678 33.6597 496.931 33.6597C496.734 33.6597 496.587 33.623 496.514 33.6011V34.9927C496.609 35.0293 496.792 35.0732 497.049 35.0732C498.777 35.0732 499.341 33.6743 499.488 31.4917ZM509.939 35H511.506V27.2949H508.474C506.672 27.2949 505.5 28.291 505.5 29.895C505.5 30.9717 506.16 31.77 507.229 32.085L505.127 35H506.929L508.789 32.356H509.939V35ZM508.555 31.1401C507.661 31.1401 507.075 30.6201 507.075 29.8877C507.075 29.0527 507.654 28.54 508.555 28.54H509.939V31.1401H508.555ZM522.712 27.2949H516.303V28.5474H518.713V35H520.302V28.5474H522.712V27.2949ZM529.127 32.7368C528.922 33.4106 528.249 33.8647 527.348 33.8647C526.081 33.8647 525.275 32.9785 525.275 31.6382V31.543H530.717V31.001C530.717 28.6646 529.384 27.1558 527.252 27.1558C525.07 27.1558 523.678 28.7671 523.678 31.1841C523.678 33.6157 525.048 35.1465 527.311 35.1465C529.076 35.1465 530.409 34.1431 530.636 32.7368H529.127ZM527.245 28.4302C528.351 28.4302 529.098 29.2578 529.135 30.437H525.29C525.363 29.2725 526.139 28.4302 527.245 28.4302ZM538.993 29.9463C538.854 28.4302 537.645 27.1558 535.66 27.1558C533.47 27.1558 532.035 28.7012 532.035 31.1475C532.035 33.6377 533.47 35.1465 535.675 35.1465C537.528 35.1465 538.839 34.0332 539.008 32.3926H537.491C537.301 33.2861 536.664 33.8208 535.69 33.8208C534.467 33.8208 533.646 32.8394 533.646 31.1475C533.646 29.4922 534.452 28.4741 535.675 28.4741C536.708 28.4741 537.323 29.126 537.484 29.9463H538.993ZM546.258 27.2949H539.85V28.5474H542.259V35H543.849V28.5474H546.258V27.2949ZM549.275 35L552.82 29.5874H552.879V35H554.454V27.2949H552.894L549.341 32.6855H549.283V27.2949H547.715V35H549.275ZM560.467 27.1704C559.353 27.1704 558.467 27.7344 558.013 28.6206H557.984V27.2949H556.453V37.5488H558.035V33.7329H558.072C558.511 34.5898 559.39 35.1318 560.496 35.1318C562.437 35.1318 563.711 33.5864 563.711 31.1475C563.711 28.7085 562.429 27.1704 560.467 27.1704ZM560.049 33.7915C558.841 33.7915 558.028 32.7515 558.028 31.1475C558.028 29.5581 558.841 28.5034 560.049 28.5034C561.302 28.5034 562.085 29.5361 562.085 31.1475C562.085 32.7661 561.302 33.7915 560.049 33.7915ZM568.677 35.1465C570.881 35.1465 572.332 33.6304 572.332 31.1475C572.332 28.6719 570.874 27.1558 568.677 27.1558C566.487 27.1558 565.022 28.6719 565.022 31.1475C565.022 33.6304 566.472 35.1465 568.677 35.1465ZM568.677 33.8428C567.439 33.8428 566.633 32.8613 566.633 31.1475C566.633 29.4409 567.446 28.4595 568.677 28.4595C569.915 28.4595 570.72 29.4409 570.72 31.1475C570.72 32.8613 569.922 33.8428 568.677 33.8428ZM577.531 35C579.201 35 580.241 34.1357 580.241 32.7808C580.241 31.8286 579.582 31.1401 578.586 31.0083V30.9497C579.326 30.8105 579.897 30.0781 579.897 29.2798C579.897 28.0493 578.989 27.2949 577.488 27.2949H573.987V35H577.531ZM575.554 28.4448H577.158C577.92 28.4448 578.337 28.811 578.337 29.4629C578.337 30.1514 577.89 30.4956 576.997 30.4956H575.554V28.4448ZM575.554 31.6016H577.099C578.139 31.6016 578.659 31.9678 578.659 32.7148C578.659 33.4546 578.169 33.8501 577.282 33.8501H575.554V31.6016ZM584.204 35.1318C585.214 35.1318 586.188 34.5898 586.635 33.7329H586.672V35H588.188V29.6899C588.188 28.1445 586.994 27.1558 585.126 27.1558C583.222 27.1558 582.036 28.1812 581.948 29.5728H583.442C583.581 28.8843 584.152 28.4448 585.068 28.4448C586.035 28.4448 586.613 28.9575 586.613 29.8145V30.4077L584.504 30.5322C582.673 30.6348 581.64 31.4624 581.64 32.8101C581.64 34.1943 582.702 35.1318 584.204 35.1318ZM584.643 33.8794C583.801 33.8794 583.237 33.4399 583.237 32.7661C583.237 32.1069 583.771 31.6895 584.716 31.6235L586.613 31.5063V32.1143C586.613 33.1177 585.749 33.8794 584.643 33.8794ZM595.212 35H596.794V27.2949H595.212V30.4004H591.74V27.2949H590.158V35H591.74V31.6455H595.212V35ZM600.367 35L603.912 29.5874H603.971V35H605.546V27.2949H603.986L600.433 32.6855H600.375V27.2949H598.807V35H600.367ZM611.852 35H613.419V27.2949H610.387C608.585 27.2949 607.413 28.291 607.413 29.895C607.413 30.9717 608.072 31.77 609.142 32.085L607.04 35H608.841L610.702 32.356H611.852V35ZM610.467 31.1401C609.574 31.1401 608.988 30.6201 608.988 29.8877C608.988 29.0527 609.566 28.54 610.467 28.54H611.852V31.1401H610.467ZM623.819 35H625.401V27.2949H623.819V30.4004H620.347V27.2949H618.765V35H620.347V31.6455H623.819V35ZM628.975 35L632.52 29.5874H632.578V35H634.153V27.2949H632.593L629.041 32.6855H628.982V27.2949H627.415V35H628.975ZM636.152 35H646.047V27.2949H644.465V33.7476H641.894V27.2949H640.305V33.7476H637.734V27.2949H636.152V35ZM649.614 35L653.159 29.5874H653.217V35H654.792V27.2949H653.232L649.68 32.6855H649.621V27.2949H648.054V35H649.614Z" fill="#2D2C35"/>
<path d="M481.034 27L473.811 34.2232L470.966 31.3776L470 32.3432L473.811 36.1544L482 27.9656L481.034 27Z" fill="#8100E9"/>
<path d="M47.5967 38.0215V36H53.2803V38.0215H54.7451V34.7476H53.5513V28.2949H47.9336L47.6553 32.4258C47.582 33.4658 47.3257 34.396 46.7617 34.7476H46.1392V38.0215H47.5967ZM51.9766 34.7476H48.4829V34.689C48.8345 34.1909 49.0249 33.3999 49.0835 32.4917L49.2959 29.5474H51.9766V34.7476ZM58.4875 32.4917L58.6926 29.5474H61.0437V36H62.633V28.2949H57.2937L57.03 32.4258C56.9421 33.7661 56.6784 34.6597 55.9313 34.6597C55.7336 34.6597 55.5871 34.623 55.5139 34.6011V35.9927C55.6091 36.0293 55.7922 36.0732 56.0485 36.0732C57.7771 36.0732 58.341 34.6743 58.4875 32.4917ZM68.9389 36H70.5063V28.2949H67.474C65.6723 28.2949 64.5004 29.291 64.5004 30.895C64.5004 31.9717 65.1596 32.77 66.2289 33.085L64.1269 36H65.9286L67.789 33.356H68.9389V36ZM67.5546 32.1401C66.661 32.1401 66.0751 31.6201 66.0751 30.8877C66.0751 30.0527 66.6537 29.54 67.5546 29.54H68.9389V32.1401H67.5546ZM82.4661 30.9463C82.327 29.4302 81.1185 28.1558 79.1336 28.1558C76.9437 28.1558 75.5081 29.7012 75.5081 32.1475C75.5081 34.6377 76.9437 36.1465 79.1482 36.1465C81.0013 36.1465 82.3123 35.0332 82.4808 33.3926H80.9646C80.7742 34.2861 80.137 34.8208 79.1629 34.8208C77.9397 34.8208 77.1194 33.8394 77.1194 32.1475C77.1194 30.4922 77.9251 29.4741 79.1482 29.4741C80.181 29.4741 80.7962 30.126 80.9573 30.9463H82.4661ZM89.7314 28.2949H83.3228V29.5474H85.7324V36H87.3218V29.5474H89.7314V28.2949ZM93.1955 36.1318C94.2062 36.1318 95.1804 35.5898 95.6271 34.7329H95.6638V36H97.1799V30.6899C97.1799 29.1445 95.986 28.1558 94.1184 28.1558C92.2141 28.1558 91.0275 29.1812 90.9396 30.5728H92.4338C92.5729 29.8843 93.1442 29.4448 94.0598 29.4448C95.0266 29.4448 95.6052 29.9575 95.6052 30.8145V31.4077L93.4958 31.5322C91.6647 31.6348 90.632 32.4624 90.632 33.8101C90.632 35.1943 91.694 36.1318 93.1955 36.1318ZM93.635 34.8794C92.7927 34.8794 92.2287 34.4399 92.2287 33.7661C92.2287 33.1069 92.7634 32.6895 93.7082 32.6235L95.6052 32.5063V33.1143C95.6052 34.1177 94.7409 34.8794 93.635 34.8794ZM103.163 28.1704C102.05 28.1704 101.164 28.7344 100.71 29.6206H100.681V28.2949H99.1498V38.5488H100.732V34.7329H100.768C101.208 35.5898 102.087 36.1318 103.193 36.1318C105.134 36.1318 106.408 34.5864 106.408 32.1475C106.408 29.7085 105.126 28.1704 103.163 28.1704ZM102.746 34.7915C101.537 34.7915 100.725 33.7515 100.725 32.1475C100.725 30.5581 101.537 29.5034 102.746 29.5034C103.998 29.5034 104.782 30.5361 104.782 32.1475C104.782 33.7661 103.998 34.7915 102.746 34.7915ZM113.659 28.2949H107.25V29.5474H109.66V36H111.249V29.5474H113.659V28.2949ZM117.123 36.1318C118.134 36.1318 119.108 35.5898 119.554 34.7329H119.591V36H121.107V30.6899C121.107 29.1445 119.913 28.1558 118.046 28.1558C116.141 28.1558 114.955 29.1812 114.867 30.5728H116.361C116.5 29.8843 117.072 29.4448 117.987 29.4448C118.954 29.4448 119.533 29.9575 119.533 30.8145V31.4077L117.423 31.5322C115.592 31.6348 114.559 32.4624 114.559 33.8101C114.559 35.1943 115.621 36.1318 117.123 36.1318ZM117.562 34.8794C116.72 34.8794 116.156 34.4399 116.156 33.7661C116.156 33.1069 116.691 32.6895 117.636 32.6235L119.533 32.5063V33.1143C119.533 34.1177 118.668 34.8794 117.562 34.8794ZM128.058 36H129.647V28.2949H123.077V36H124.659V29.5474H128.058V36ZM133.909 36.1318C134.92 36.1318 135.894 35.5898 136.341 34.7329H136.378V36H137.894V30.6899C137.894 29.1445 136.7 28.1558 134.832 28.1558C132.928 28.1558 131.741 29.1812 131.654 30.5728H133.148C133.287 29.8843 133.858 29.4448 134.774 29.4448C135.74 29.4448 136.319 29.9575 136.319 30.8145V31.4077L134.21 31.5322C132.379 31.6348 131.346 32.4624 131.346 33.8101C131.346 35.1943 132.408 36.1318 133.909 36.1318ZM134.349 34.8794C133.507 34.8794 132.943 34.4399 132.943 33.7661C132.943 33.1069 133.477 32.6895 134.422 32.6235L136.319 32.5063V33.1143C136.319 34.1177 135.455 34.8794 134.349 34.8794Z" fill="#2D2C35"/>
<path d="M40.0344 27L32.8112 34.2232L29.9656 31.3776L29 32.3432L32.8112 36.1544L41 27.9656L40.0344 27Z" fill="#8100E9"/>
<defs>
<filter id="filter0_d_3549_2" x="0" y="0" width="748" height="296" filterUnits="userSpaceOnUse" color-interpolation-filters="sRGB">
<feFlood flood-opacity="0" result="BackgroundImageFix"/>
<feColorMatrix in="SourceAlpha" type="matrix" values="0 0 0 0 0 0 0 0 0 0 0 0 0 0 0 0 0 0 127 0" result="hardAlpha"/>
<feOffset dx="2" dy="2"/>
<feGaussianBlur stdDeviation="5"/>
<feColorMatrix type="matrix" values="0 0 0 0 0.219608 0 0 0 0 0.109804 0 0 0 0 0.588235 0 0 0 0.25 0"/>
<feBlend mode="normal" in2="BackgroundImageFix" result="effect1_dropShadow_3549_2"/>
<feBlend mode="normal" in="SourceGraphic" in2="effect1_dropShadow_3549_2" result="shape"/>
</filter>
</defs>
</svg>
