<svg width="25" height="25" viewBox="0 0 25 25" fill="none" xmlns="http://www.w3.org/2000/svg">
<g clip-path="url(#clip0_893_56)">
<path d="M6.5917 21.2269C6.55941 22.7529 6.3792 24.4967 7.70733 24.9175C9.00941 25.3415 9.76462 24.2946 11.4625 22.1696C17.7938 22.6019 23.3823 20.8217 24.1302 14.4394C24.8 8.76544 23.9344 4.52065 21.7063 2.50086C18.4386 -0.630389 7.80212 -1.06893 3.90837 2.65294C2.30524 4.32065 1.52399 6.76752 1.45108 10.354C1.3917 13.2831 1.27087 19.2727 6.5917 21.2269ZM3.01358 10.3863C3.07816 7.21648 3.71983 5.10294 5.01045 3.75919C8.26149 0.652943 17.8959 1.01232 20.6407 3.64565C22.473 5.30502 23.1802 9.17273 22.5792 14.2571C22.0334 18.9196 19.0313 19.7154 17.9011 20.0144C15.5605 20.6321 13.3292 20.7665 11.1886 20.5811C10.625 20.5206 10.4032 21.054 10.198 21.2477C9.17816 22.4738 8.44274 23.3592 8.25212 23.4779C8.11149 23.2686 8.13337 22.2779 8.15004 21.4821C8.09899 21.1238 8.41983 20.1331 7.58337 19.9092C2.84899 18.5113 2.95629 13.2269 3.01358 10.3863Z" fill="#8100E9"/>
<path d="M6.00146 8.31259C6.83584 9.97613 7.64938 12.9157 10.7733 15.4741C11.8577 16.3678 15.1035 18.4303 16.3744 18.4303C18.19 18.4303 20.264 15.5741 18.7452 14.3001C18.0619 13.6324 17.1004 12.9751 16.4838 12.6136C16.4827 12.6126 16.4817 12.6126 16.4817 12.6126C14.8806 11.6865 14.0035 13.3907 13.8994 13.4574C11.5535 15.5574 8.66396 11.9095 10.689 10.1449C10.9379 9.83551 12.4233 9.11884 11.5421 7.48967C10.7608 6.07613 10.2452 5.58967 9.95355 5.18654C8.415 3.26571 5.08584 6.45633 6.00146 8.31259ZM15.5577 13.9095C15.664 13.9761 16.59 14.3813 17.6952 15.4574C17.8358 15.5751 16.8983 16.9376 16.3015 16.8595C16.1838 16.8063 15.3327 16.6032 13.5046 15.4855C15.24 14.8959 15.2254 13.972 15.5577 13.9095ZM8.61396 6.17508C8.67855 6.14071 8.71188 6.13863 8.70875 6.13029C9.00875 6.548 9.45667 6.94592 10.1713 8.23863C10.3608 8.58967 9.89313 8.72613 9.59105 9.03446C9.16084 9.41571 8.84521 9.86988 8.65146 10.3709C8.01188 9.16363 7.72542 8.29384 7.43375 7.6855C7.31709 7.13133 8.11813 6.45842 8.61396 6.17508Z" fill="#8100E9"/>
<path d="M13.3464 8.90639C13.3579 8.90743 14.4912 9.05222 14.6943 10.272C14.8662 11.3074 16.4037 11.0293 16.235 10.0158C15.9193 8.12097 14.3245 7.44597 13.5235 7.3543C12.4975 7.23868 12.3214 8.78764 13.3464 8.90639Z" fill="#8100E9"/>
<path d="M12.532 5.53766C12.5497 5.53766 15.0091 5.49391 16.6102 7.20641C18.1914 8.89807 17.8425 11.3574 17.8393 11.3793C17.68 12.3929 19.2195 12.6616 19.382 11.622C19.4029 11.4918 19.8623 8.39703 17.7518 6.1387C15.657 3.89703 12.6102 3.96682 12.4841 3.97516C11.4164 4.01057 11.5456 5.61891 12.532 5.53766Z" fill="#8100E9"/>
</g>
<defs>
<clipPath id="clip0_893_56">
<rect width="25" height="25" fill="white"/>
</clipPath>
</defs>
</svg>
