<svg width="62" height="281" viewBox="0 0 62 281" fill="none" xmlns="http://www.w3.org/2000/svg">
<line x1="50" y1="28" x2="50" y2="281" stroke="#2D2C35" stroke-width="2"/>
<path d="M39 184.172L26.3047 184.172L26.3047 185.784L31.8223 185.784C32.5181 186.455 32.9209 187.615 32.9209 189.104C32.9209 191.155 31.688 192.205 29.8081 192.205L26.3047 192.205L26.3047 193.828L29.8325 193.828C32.5181 193.828 34.3491 192.229 34.3491 189.153C34.3491 187.712 34.0073 186.675 33.4824 185.942L33.4824 185.784L39 185.784L39 184.172ZM26.3047 171.429L26.3047 181.67L27.6475 181.67L27.6475 177.361L39 177.361L39 175.75L27.6475 175.75L27.6475 171.429L26.3047 171.429ZM39.2075 164.166C39.2075 160.711 36.6807 158.38 32.6523 158.38C28.6118 158.38 26.0972 160.711 26.0972 164.166C26.0972 167.608 28.6118 169.952 32.6523 169.952C36.6807 169.952 39.2075 167.621 39.2075 164.166ZM37.7793 164.166C37.7793 166.656 35.875 168.304 32.6523 168.304C29.4297 168.304 27.5254 166.656 27.5254 164.166C27.5254 161.676 29.4297 160.016 32.6523 160.016C35.875 160.016 37.7793 161.676 37.7793 164.166ZM39 148.273L29.1611 148.273L29.1611 148.2L38.7437 143.598L38.7437 142.341L29.1611 137.739L29.1611 137.678L39 137.678L39 136.066L26.3047 136.066L26.3047 137.934L36.876 142.89L36.876 142.976L26.3047 147.932L26.3047 149.873L39 149.873L39 148.273ZM39 121.748L39 120.149L26.3047 120.149L26.3047 121.748L39 121.748ZM39 132.551L39 128.193C39 125.398 37.3765 123.591 34.8008 123.591C32.2251 123.591 30.6138 125.398 30.6138 128.193L30.6138 130.928L26.3047 130.928L26.3047 132.551L39 132.551ZM31.9565 128.218C31.9565 126.387 33.0796 125.19 34.8008 125.19C36.522 125.19 37.6572 126.375 37.6572 128.218L37.6572 130.928L31.9565 130.928L31.9565 128.218ZM42.3569 110.75L39 110.75L39 100.167L42.3569 100.167L42.3569 98.6411L37.6572 98.6411L37.6572 100.692L26.3047 100.692L26.3047 109.2C27.0005 109.237 32.7378 109.64 33.4702 109.701C35.3501 109.859 37.0347 110.287 37.6572 111.239L37.6572 112.264L42.3569 112.264L42.3569 110.75ZM37.6572 102.303L37.6572 109.334L37.5718 109.334C36.7295 108.651 35.2158 108.333 33.519 108.199C32.8232 108.126 28.3066 107.809 27.6475 107.772L27.6475 102.303L37.6572 102.303ZM35.3989 87.5454C36.7905 87.8994 37.7915 89.23 37.7915 91.1465C37.7915 93.6733 36.0093 95.2969 33.1406 95.2969L33.043 95.2969L33.043 85.7876L32.3594 85.7876C28.5752 85.7876 26.0972 87.9116 26.0972 91.2808C26.0972 94.7231 28.7461 96.957 32.689 96.957C36.7173 96.957 39.2075 94.7476 39.2075 91.1831C39.2075 88.3877 37.5962 86.3247 35.3989 85.9463L35.3989 87.5454ZM27.5132 91.3052C27.5132 89.0103 29.2588 87.4844 31.7612 87.4478L31.7612 95.2847C29.2588 95.1504 27.5132 93.5757 27.5132 91.3052ZM33.519 80.4658C32.8232 80.4048 28.3066 80.0874 27.6475 80.0508L27.6475 75.0093L39 75.0093L39 73.3857L26.3047 73.3857L26.3047 81.5156C27.0005 81.5522 32.7378 81.9307 33.4702 82.0039C35.9238 82.187 37.6206 82.6509 37.6206 83.9692C37.6206 84.2988 37.5474 84.543 37.5229 84.6162L38.9878 84.6162C39.0244 84.5186 39.1099 84.2622 39.1099 83.896C39.1099 81.4424 36.8027 80.7222 33.519 80.4658ZM39.2075 66.0986C39.2075 64.2065 38.1577 62.4731 36.583 61.7651L36.583 61.7285L39 61.7285L39 60.1904L30.3086 60.1904C27.7207 60.1904 26.0972 62.0093 26.0972 64.9023C26.0972 67.7954 27.7085 69.6631 29.979 69.8462L29.979 68.2837C28.4409 68.0029 27.5254 66.8066 27.5254 64.939C27.5254 62.9614 28.624 61.8018 30.4551 61.8018L31.5537 61.8018L31.7978 65.7568C31.9932 68.6865 33.3115 70.3101 35.4844 70.3101C37.706 70.3101 39.2075 68.6011 39.2075 66.0986ZM37.8159 65.769C37.8159 67.4902 36.8638 68.6743 35.4844 68.6743C34.0806 68.6743 33.2139 67.5635 33.0796 65.5615L32.8232 61.8018L34.227 61.8018C36.2412 61.8018 37.8159 63.5474 37.8159 65.769ZM35.3989 47.9595C36.7905 48.3135 37.7915 49.644 37.7915 51.5605C37.7915 54.0874 36.0093 55.7109 33.1406 55.7109L33.043 55.7109L33.043 46.2017L32.3594 46.2017C28.5752 46.2017 26.0972 48.3257 26.0972 51.6948C26.0972 55.1372 28.7461 57.3711 32.689 57.3711C36.7173 57.3711 39.2075 55.1616 39.2075 51.5972C39.2075 48.8018 37.5962 46.7388 35.3989 46.3604L35.3989 47.9595ZM27.5132 51.7192C27.5132 49.4243 29.2588 47.8984 31.7612 47.8618L31.7612 55.6987C29.2588 55.5645 27.5132 53.9897 27.5132 51.7192ZM39 41.71L29.1611 41.71L29.1611 41.6367L38.7436 37.0347L38.7436 35.7773L29.1611 31.1753L29.1611 31.1143L39 31.1143L39 29.5029L26.3047 29.5029L26.3047 31.3706L36.876 36.3267L36.876 36.4121L26.3047 41.3682L26.3047 43.3091L39 43.3091L39 41.71Z" fill="#2D2C35"/>
</svg>
