<svg width="11" height="11" viewBox="0 0 11 11" fill="none" xmlns="http://www.w3.org/2000/svg">
<g clip-path="url(#clip0_935_194)">
<path d="M5.5 0C2.4603 0 0 2.45988 0 5.5C0 6.4647 0.251602 7.40691 0.729378 8.23792L0.0207291 10.4386C-0.0287018 10.592 0.0119171 10.7601 0.125885 10.8741C0.238762 10.987 0.406525 11.0291 0.561447 10.9793L2.76208 10.2706C3.59309 10.7484 4.5353 11 5.5 11C8.5397 11 11 8.54012 11 5.5C11 2.4603 8.54012 0 5.5 0ZM5.5 10.1406C4.62862 10.1406 3.77924 9.8975 3.04365 9.43752C2.93782 9.37138 2.8064 9.35351 2.68412 9.39287L1.09554 9.90446L1.60713 8.31588C1.6459 8.19537 1.62954 8.06377 1.5624 7.95635C1.1025 7.22076 0.859375 6.37138 0.859375 5.5C0.859375 2.94118 2.94118 0.859375 5.5 0.859375C8.05882 0.859375 10.1406 2.94118 10.1406 5.5C10.1406 8.05882 8.05882 10.1406 5.5 10.1406ZM6.03711 5.5C6.03711 5.79659 5.79667 6.03711 5.5 6.03711C5.20333 6.03711 4.96289 5.79659 4.96289 5.5C4.96289 5.20333 5.20333 4.96289 5.5 4.96289C5.79667 4.96289 6.03711 5.20333 6.03711 5.5ZM8.18555 5.5C8.18555 5.79659 7.94511 6.03711 7.64844 6.03711C7.35177 6.03711 7.11133 5.79659 7.11133 5.5C7.11133 5.20333 7.35177 4.96289 7.64844 4.96289C7.94511 4.96289 8.18555 5.20333 8.18555 5.5ZM3.88867 5.5C3.88867 5.79659 3.64823 6.03711 3.35156 6.03711C3.05498 6.03711 2.81445 5.79659 2.81445 5.5C2.81445 5.20333 3.05498 4.96289 3.35156 4.96289C3.64823 4.96289 3.88867 5.20333 3.88867 5.5Z" fill="#FEFEFE"/>
</g>
<defs>
<clipPath id="clip0_935_194">
<rect width="11" height="11" fill="white"/>
</clipPath>
</defs>
</svg>
