<svg width="25" height="25" viewBox="0 0 25 25" fill="none" xmlns="http://www.w3.org/2000/svg">
<g clip-path="url(#clip0_893_52)">
<path d="M0.432416 11.6627L6.54596 14.7096C6.78241 14.8263 7.06158 14.818 7.28762 14.6857L12.7293 11.5221L9.43554 14.4409C9.26783 14.5898 9.172 14.8023 9.172 15.0263V22.1357C9.172 22.8857 10.1293 23.2013 10.5782 22.6055L13.221 19.0919L19.7564 22.8138C20.2147 23.0773 20.8022 22.8128 20.9085 22.2888L24.9845 1.97628C25.1064 1.36586 24.4991 0.867947 23.9345 1.09503L0.496999 10.2357C-0.132168 10.4815 -0.172793 11.3617 0.432416 11.6627ZM23.172 3.07003L19.5897 20.9211L13.397 17.394C13.0595 17.2013 12.6251 17.2867 12.3855 17.6034L10.7345 19.7982V15.3773L19.6418 7.48566C20.347 6.8617 19.5366 5.75232 18.7314 6.22524L6.86679 13.1232L2.70846 11.0513L23.172 3.07003Z" fill="#8100E9"/>
</g>
<defs>
<clipPath id="clip0_893_52">
<rect width="25" height="25" fill="white"/>
</clipPath>
</defs>
</svg>
