<svg width="25" height="25" viewBox="0 0 25 25" fill="none" xmlns="http://www.w3.org/2000/svg">
<g clip-path="url(#clip0_893_48)">
<path d="M21.4491 3.55091C19.1591 1.26095 16.1152 0 12.8765 0C12.8763 0 12.8756 0 12.8754 0C11.2736 0.000190735 9.7126 0.310326 8.23612 0.922012C6.75946 1.5337 5.43652 2.41814 4.30374 3.55091C2.01397 5.84068 0.753024 8.88519 0.753024 12.1235C0.753024 14.0547 1.21899 15.9739 2.1019 17.6838L0.0640898 23.5054C-0.0795336 23.9161 0.0221281 24.3624 0.329974 24.67C0.545314 24.8856 0.828746 25 1.12019 25C1.24512 25 1.37139 24.979 1.4946 24.9359L7.31621 22.8983C9.02615 23.7812 10.9453 24.2472 12.8765 24.2472C16.1148 24.2472 19.1591 22.986 21.4491 20.6963C23.7389 18.4065 25 15.362 25 12.1237C25 8.88519 23.7391 5.84068 21.4491 3.55091ZM20.4123 19.6594C18.3994 21.6724 15.723 22.7808 12.8765 22.7808C11.1351 22.7808 9.40514 22.3501 7.87354 21.5349C7.59583 21.3873 7.26757 21.3619 6.97289 21.4651L1.68381 23.3162L3.53508 18.0271C3.63827 17.732 3.61271 17.4038 3.46508 17.1263C2.65007 15.5951 2.2192 13.8651 2.2192 12.1235C2.2192 9.27696 3.32775 6.60057 5.34058 4.58775C7.35321 2.57511 10.0292 1.46656 12.8756 1.46618H12.8765C15.7232 1.46618 18.3994 2.57473 20.4123 4.58775C22.4253 6.60057 23.5338 9.27677 23.5338 12.1235C23.5338 14.9702 22.4253 17.6466 20.4123 19.6594Z" fill="#8100E9"/>
<path d="M17.3817 13.2067C16.824 12.649 15.9165 12.649 15.3587 13.2067L14.7488 13.8167C13.2342 12.9914 12.0085 11.7657 11.183 10.2511L11.793 9.64112C12.3509 9.08341 12.3509 8.1759 11.793 7.61819L10.1492 5.97443C9.5915 5.41673 8.68398 5.41673 8.12627 5.97443L6.81135 7.28936C6.05813 8.04257 6.02056 9.33747 6.70549 10.9356C7.3002 12.3232 8.38853 13.8484 9.77003 15.2298C11.1515 16.6113 12.6766 17.6997 14.0642 18.2944C14.8235 18.6198 15.5142 18.7821 16.111 18.7821C16.7704 18.7821 17.3151 18.5839 17.7105 18.1885L19.0254 16.8734V16.8736C19.2957 16.6033 19.4445 16.2442 19.4445 15.8621C19.4445 15.4799 19.2957 15.1207 19.0254 14.8507L17.3817 13.2067ZM16.6737 17.1517C16.4587 17.3666 15.7976 17.442 14.642 16.9468C13.4216 16.4238 12.0596 15.4458 10.8069 14.193C9.55411 12.9403 8.57622 11.5784 8.05322 10.3581C7.55788 9.20243 7.63322 8.54115 7.84818 8.32619L9.13793 7.03645L10.7309 8.62965L9.96744 9.39336C9.62221 9.73859 9.53885 10.2622 9.7603 10.6963C10.7641 12.6646 12.3352 14.2357 14.3036 15.2396C14.7379 15.461 15.2615 15.3779 15.6067 15.0324L16.3702 14.2689L17.9634 15.8621L16.6737 17.1517Z" fill="#8100E9"/>
</g>
<defs>
<clipPath id="clip0_893_48">
<rect width="25" height="25" fill="white"/>
</clipPath>
</defs>
</svg>
